<svg width="56" height="46" viewBox="0 0 56 46" fill="none" xmlns="http://www.w3.org/2000/svg">
<g filter="url(#filter0_dddd_10146_354)">
<g filter="url(#filter1_f_10146_354)">
<mask id="mask0_10146_354" style="mask-type:alpha" maskUnits="userSpaceOnUse" x="12" y="9" width="27" height="25">
<path d="M31.8667 10.2328C29.8884 9.06442 27.3589 9.75781 26.2168 11.7816L25.3663 13.2885L24.5169 11.7834C23.463 9.91582 21.2274 9.18122 19.334 9.99721C19.1638 10.0693 18.9962 10.154 18.8325 10.2514C16.8579 11.4262 16.1882 14.0161 17.3366 16.0362L18.1775 17.5155H16.506C14.2217 17.5155 12.37 19.4099 12.37 21.7467C12.37 23.4058 13.3034 24.8419 14.6623 25.5353C15.218 25.8193 15.845 25.9792 16.5085 25.9792H18.2043L17.354 27.4858C16.6997 28.6452 16.6427 29.9897 17.0853 31.1464C17.4152 32.0092 18.023 32.7677 18.8683 33.267C20.8466 34.4353 23.3761 33.742 24.5182 31.7182L25.3669 30.2143L26.216 31.7188C27.3582 33.7426 29.8876 34.436 31.8659 33.2676C31.9995 33.1886 32.1272 33.1032 32.2489 33.0119C33.952 31.7537 34.4769 29.3541 33.3985 27.4572L32.5583 25.9792H34.2341C36.5183 25.9792 38.37 24.0848 38.37 21.748C38.37 20.0901 37.438 18.6549 36.0807 17.9609C35.5242 17.6759 34.8962 17.5155 34.2315 17.5155H32.5336L33.381 16.014C34.0354 14.8543 34.0923 13.5094 33.6494 12.3526C33.3194 11.4901 32.7117 10.732 31.8667 10.2328Z" fill="#D9D9D9"/>
</mask>
<g mask="url(#mask0_10146_354)">
<g filter="url(#filter2_f_10146_354)">
<g clip-path="url(#paint0_angular_10146_354_clip_path)" data-figma-skip-parse="true"><g transform="matrix(0.0104593 -0.0282434 0.0337219 0.0173111 25.4414 21.7474)"><foreignObject x="-816.618" y="-816.618" width="1633.24" height="1633.24"><div xmlns="http://www.w3.org/1999/xhtml" style="background:conic-gradient(from 90deg,rgba(247, 42, 134, 1) 0deg,rgba(255, 2, 240, 1) 134.673deg,rgba(237, 95, 0, 1) 187.2deg,rgba(247, 42, 134, 1) 360deg);height:100%;width:100%;opacity:1"></div></foreignObject></g></g><path d="M48.3972 28.1207L31.5243 -1.77705L2.48573 15.3744L19.3587 45.2721L48.3972 28.1207Z" data-figma-gradient-fill="{&#34;type&#34;:&#34;GRADIENT_ANGULAR&#34;,&#34;stops&#34;:[{&#34;color&#34;:{&#34;r&#34;:1.0,&#34;g&#34;:0.0078431377187371254,&#34;b&#34;:0.94117647409439087,&#34;a&#34;:1.0},&#34;position&#34;:0.37409093976020813},{&#34;color&#34;:{&#34;r&#34;:0.92941176891326904,&#34;g&#34;:0.37254902720451355,&#34;b&#34;:0.0,&#34;a&#34;:1.0},&#34;position&#34;:0.51999998092651367}],&#34;stopsVar&#34;:[{&#34;color&#34;:{&#34;r&#34;:1.0,&#34;g&#34;:0.0078431377187371254,&#34;b&#34;:0.94117647409439087,&#34;a&#34;:1.0},&#34;position&#34;:0.37409093976020813},{&#34;color&#34;:{&#34;r&#34;:0.92941176891326904,&#34;g&#34;:0.37254902720451355,&#34;b&#34;:0.0,&#34;a&#34;:1.0},&#34;position&#34;:0.51999998092651367}],&#34;transform&#34;:{&#34;m00&#34;:20.918640136718750,&#34;m01&#34;:67.443717956542969,&#34;m02&#34;:-18.739807128906250,&#34;m10&#34;:-56.486846923828125,&#34;m11&#34;:34.622276306152344,&#34;m12&#34;:32.679641723632812},&#34;opacity&#34;:1.0,&#34;blendMode&#34;:&#34;NORMAL&#34;,&#34;visible&#34;:true}"/>
</g>
</g>
</g>
<g filter="url(#filter3_f_10146_354)">
<mask id="mask1_10146_354" style="mask-type:alpha" maskUnits="userSpaceOnUse" x="12" y="9" width="27" height="25">
<path d="M31.8667 10.2328C29.8884 9.06442 27.3589 9.75781 26.2168 11.7816L25.3663 13.2885L24.5169 11.7834C23.463 9.91582 21.2274 9.18122 19.334 9.99721C19.1638 10.0693 18.9962 10.154 18.8325 10.2514C16.8579 11.4262 16.1882 14.0161 17.3366 16.0362L18.1775 17.5155H16.506C14.2217 17.5155 12.37 19.4099 12.37 21.7467C12.37 23.4058 13.3034 24.8419 14.6623 25.5353C15.218 25.8193 15.845 25.9792 16.5085 25.9792H18.2043L17.354 27.4858C16.6997 28.6452 16.6427 29.9897 17.0853 31.1464C17.4152 32.0092 18.023 32.7677 18.8683 33.267C20.8466 34.4353 23.3761 33.742 24.5182 31.7182L25.3669 30.2143L26.216 31.7188C27.3582 33.7426 29.8876 34.436 31.8659 33.2676C31.9995 33.1886 32.1272 33.1032 32.2489 33.0119C33.952 31.7537 34.4769 29.3541 33.3985 27.4572L32.5583 25.9792H34.2341C36.5183 25.9792 38.37 24.0848 38.37 21.748C38.37 20.0901 37.438 18.6549 36.0807 17.9609C35.5242 17.6759 34.8962 17.5155 34.2315 17.5155H32.5336L33.381 16.014C34.0354 14.8543 34.0923 13.5094 33.6494 12.3526C33.3194 11.4901 32.7117 10.732 31.8667 10.2328Z" fill="#D9D9D9"/>
</mask>
<g mask="url(#mask1_10146_354)">
<g filter="url(#filter4_f_10146_354)">
<g clip-path="url(#paint1_angular_10146_354_clip_path)" data-figma-skip-parse="true"><g transform="matrix(0.0104593 -0.0282434 0.0337219 0.0173111 25.4414 21.7474)"><foreignObject x="-816.618" y="-816.618" width="1633.24" height="1633.24"><div xmlns="http://www.w3.org/1999/xhtml" style="background:conic-gradient(from 90deg,rgba(255, 102, 0, 1) 0deg,rgba(255, 2, 240, 1) 134.673deg,rgba(237, 95, 0, 1) 187.2deg,rgba(255, 102, 0, 1) 269.007deg,rgba(255, 102, 0, 1) 360deg);height:100%;width:100%;opacity:0.2"></div></foreignObject></g></g><path d="M48.3972 28.1207L31.5243 -1.77705L2.48573 15.3744L19.3587 45.2721L48.3972 28.1207Z" data-figma-gradient-fill="{&#34;type&#34;:&#34;GRADIENT_ANGULAR&#34;,&#34;stops&#34;:[{&#34;color&#34;:{&#34;r&#34;:1.0,&#34;g&#34;:0.40000000596046448,&#34;b&#34;:0.0,&#34;a&#34;:1.0},&#34;position&#34;:0.0},{&#34;color&#34;:{&#34;r&#34;:1.0,&#34;g&#34;:0.0078431377187371254,&#34;b&#34;:0.94117647409439087,&#34;a&#34;:1.0},&#34;position&#34;:0.37409093976020813},{&#34;color&#34;:{&#34;r&#34;:0.92941176891326904,&#34;g&#34;:0.37254902720451355,&#34;b&#34;:0.0,&#34;a&#34;:1.0},&#34;position&#34;:0.51999998092651367},{&#34;color&#34;:{&#34;r&#34;:1.0,&#34;g&#34;:0.40000000596046448,&#34;b&#34;:0.0,&#34;a&#34;:1.0},&#34;position&#34;:0.74724179506301880}],&#34;stopsVar&#34;:[{&#34;color&#34;:{&#34;r&#34;:1.0,&#34;g&#34;:0.40000000596046448,&#34;b&#34;:0.0,&#34;a&#34;:1.0},&#34;position&#34;:0.0},{&#34;color&#34;:{&#34;r&#34;:1.0,&#34;g&#34;:0.0078431377187371254,&#34;b&#34;:0.94117647409439087,&#34;a&#34;:1.0},&#34;position&#34;:0.37409093976020813},{&#34;color&#34;:{&#34;r&#34;:0.92941176891326904,&#34;g&#34;:0.37254902720451355,&#34;b&#34;:0.0,&#34;a&#34;:1.0},&#34;position&#34;:0.51999998092651367},{&#34;color&#34;:{&#34;r&#34;:1.0,&#34;g&#34;:0.40000000596046448,&#34;b&#34;:0.0,&#34;a&#34;:1.0},&#34;position&#34;:0.74724179506301880}],&#34;transform&#34;:{&#34;m00&#34;:20.918640136718750,&#34;m01&#34;:67.443717956542969,&#34;m02&#34;:-18.739807128906250,&#34;m10&#34;:-56.486846923828125,&#34;m11&#34;:34.622276306152344,&#34;m12&#34;:32.679641723632812},&#34;opacity&#34;:0.20000000298023224,&#34;blendMode&#34;:&#34;NORMAL&#34;,&#34;visible&#34;:true}"/>
</g>
</g>
</g>
<g clip-path="url(#clip0_10146_354)">
<g filter="url(#filter5_f_10146_354)">
<path d="M39.6342 16.4032V18.618L30.3096 17.5106L39.6342 16.4032Z" fill="#686868"/>
<path d="M31.3422 30.4314V32.4701L22.0176 31.4507L31.3422 30.4314Z" fill="#686868"/>
<path d="M30.6539 26.8396V28.8784L23.2335 27.8589L30.6539 26.8396Z" fill="#686868"/>
<path d="M24.0935 18.1856V20.0273L16.2401 19.1065L24.0935 18.1856Z" fill="#686868"/>
<path d="M20.3997 20.6956V22.2964L12.2813 21.496L20.3997 20.6956Z" fill="#686868"/>
<path d="M29.6926 12.9695V14.5702L21.5742 13.7698L29.6926 12.9695Z" fill="#686868"/>
<path d="M24.2962 10.3937V11.5746L20.8662 10.9841L24.2962 10.3937Z" fill="#686868"/>
<path d="M33.2333 25.8466V26.976L27.7341 26.4114L33.2333 25.8466Z" fill="#686868"/>
<path d="M20.5353 26.7053V28.4393L15.7148 27.5723L20.5353 26.7053Z" fill="#686868"/>
</g>
</g>
<g filter="url(#filter6_dd_10146_354)">
<path fill-rule="evenodd" clip-rule="evenodd" d="M32.8084 12.5676C32.1651 11.3645 30.4763 11.3645 29.833 12.5676L27.707 16.5444C27.1769 17.536 26.3799 18.3511 25.4107 18.8935L21.5234 21.0685C20.3475 21.7266 20.3475 23.4543 21.5234 24.1124L25.4107 26.2874C26.38 26.8297 27.1769 27.6449 27.707 28.6364L29.833 32.6133C30.4763 33.8164 32.1651 33.8163 32.8084 32.6132L34.9345 28.6364C35.4646 27.6449 36.2615 26.8297 37.2307 26.2874L41.118 24.1124C42.294 23.4543 42.294 21.7265 41.1179 21.0685L37.2307 18.8935C36.2615 18.3511 35.4646 17.536 34.9345 16.5444L32.8084 12.5676Z" fill="white" fill-opacity="0.75"/>
</g>
</g>
<defs>
<filter id="filter0_dddd_10146_354" x="3.9866" y="8.20827" width="46.0268" height="56.6191" filterUnits="userSpaceOnUse" color-interpolation-filters="sRGB">
<feFlood flood-opacity="0" result="BackgroundImageFix"/>
<feColorMatrix in="SourceAlpha" type="matrix" values="0 0 0 0 0 0 0 0 0 0 0 0 0 0 0 0 0 0 127 0" result="hardAlpha"/>
<feOffset dy="1.21415"/>
<feGaussianBlur stdDeviation="1.33557"/>
<feColorMatrix type="matrix" values="0 0 0 0 0 0 0 0 0 0 0 0 0 0 0 0 0 0 0.1 0"/>
<feBlend mode="normal" in2="BackgroundImageFix" result="effect1_dropShadow_10146_354"/>
<feColorMatrix in="SourceAlpha" type="matrix" values="0 0 0 0 0 0 0 0 0 0 0 0 0 0 0 0 0 0 127 0" result="hardAlpha"/>
<feOffset dy="5.09943"/>
<feGaussianBlur stdDeviation="2.54972"/>
<feColorMatrix type="matrix" values="0 0 0 0 0 0 0 0 0 0 0 0 0 0 0 0 0 0 0.09 0"/>
<feBlend mode="normal" in2="effect1_dropShadow_10146_354" result="effect2_dropShadow_10146_354"/>
<feColorMatrix in="SourceAlpha" type="matrix" values="0 0 0 0 0 0 0 0 0 0 0 0 0 0 0 0 0 0 127 0" result="hardAlpha"/>
<feOffset dy="11.413"/>
<feGaussianBlur stdDeviation="3.39962"/>
<feColorMatrix type="matrix" values="0 0 0 0 0 0 0 0 0 0 0 0 0 0 0 0 0 0 0.05 0"/>
<feBlend mode="normal" in2="effect2_dropShadow_10146_354" result="effect3_dropShadow_10146_354"/>
<feColorMatrix in="SourceAlpha" type="matrix" values="0 0 0 0 0 0 0 0 0 0 0 0 0 0 0 0 0 0 127 0" result="hardAlpha"/>
<feOffset dy="20.3977"/>
<feGaussianBlur stdDeviation="4.0067"/>
<feColorMatrix type="matrix" values="0 0 0 0 0 0 0 0 0 0 0 0 0 0 0 0 0 0 0.01 0"/>
<feBlend mode="normal" in2="effect3_dropShadow_10146_354" result="effect4_dropShadow_10146_354"/>
<feBlend mode="normal" in="SourceGraphic" in2="effect4_dropShadow_10146_354" result="shape"/>
</filter>
<filter id="filter1_f_10146_354" x="-4.62811" y="-7.33285" width="59.9962" height="58.1661" filterUnits="userSpaceOnUse" color-interpolation-filters="sRGB">
<feFlood flood-opacity="0" result="BackgroundImageFix"/>
<feBlend mode="normal" in="SourceGraphic" in2="BackgroundImageFix" result="shape"/>
<feGaussianBlur stdDeviation="8.49905" result="effect1_foregroundBlur_10146_354"/>
</filter>
<filter id="filter2_f_10146_354" x="-5.20389" y="-9.46667" width="61.2907" height="62.4284" filterUnits="userSpaceOnUse" color-interpolation-filters="sRGB">
<feFlood flood-opacity="0" result="BackgroundImageFix"/>
<feBlend mode="normal" in="SourceGraphic" in2="BackgroundImageFix" result="shape"/>
<feGaussianBlur stdDeviation="3.84481" result="effect1_foregroundBlur_10146_354"/>
</filter>
<clipPath id="paint0_angular_10146_354_clip_path"><path d="M48.3972 28.1207L31.5243 -1.77705L2.48573 15.3744L19.3587 45.2721L48.3972 28.1207Z"/></clipPath><filter id="filter3_f_10146_354" x="7.5134" y="4.80866" width="35.7132" height="33.8831" filterUnits="userSpaceOnUse" color-interpolation-filters="sRGB">
<feFlood flood-opacity="0" result="BackgroundImageFix"/>
<feBlend mode="normal" in="SourceGraphic" in2="BackgroundImageFix" result="shape"/>
<feGaussianBlur stdDeviation="2.4283" result="effect1_foregroundBlur_10146_354"/>
</filter>
<filter id="filter4_f_10146_354" x="-5.20389" y="-9.46667" width="61.2907" height="62.4284" filterUnits="userSpaceOnUse" color-interpolation-filters="sRGB">
<feFlood flood-opacity="0" result="BackgroundImageFix"/>
<feBlend mode="normal" in="SourceGraphic" in2="BackgroundImageFix" result="shape"/>
<feGaussianBlur stdDeviation="3.84481" result="effect1_foregroundBlur_10146_354"/>
</filter>
<clipPath id="paint1_angular_10146_354_clip_path"><path d="M48.3972 28.1207L31.5243 -1.77705L2.48573 15.3744L19.3587 45.2721L48.3972 28.1207Z"/></clipPath><filter id="filter5_f_10146_354" x="11.4228" y="9.53525" width="94.435" height="27.5964" filterUnits="userSpaceOnUse" color-interpolation-filters="sRGB">
<feFlood flood-opacity="0" result="BackgroundImageFix"/>
<feBlend mode="normal" in="SourceGraphic" in2="BackgroundImageFix" result="shape"/>
<feGaussianBlur stdDeviation="0.429247" result="effect1_foregroundBlur_10146_354"/>
</filter>
<filter id="filter6_dd_10146_354" x="0.890948" y="11.6653" width="41.1091" height="43.7953" filterUnits="userSpaceOnUse" color-interpolation-filters="sRGB">
<feFlood flood-opacity="0" result="BackgroundImageFix"/>
<feColorMatrix in="SourceAlpha" type="matrix" values="0 0 0 0 0 0 0 0 0 0 0 0 0 0 0 0 0 0 127 0" result="hardAlpha"/>
<feOffset dx="-6.5835" dy="8.22937"/>
<feGaussianBlur stdDeviation="3.29175"/>
<feColorMatrix type="matrix" values="0 0 0 0 0 0 0 0 0 0 0 0 0 0 0 0 0 0 0.1 0"/>
<feBlend mode="multiply" in2="BackgroundImageFix" result="effect1_dropShadow_10146_354"/>
<feColorMatrix in="SourceAlpha" type="matrix" values="0 0 0 0 0 0 0 0 0 0 0 0 0 0 0 0 0 0 127 0" result="hardAlpha"/>
<feOffset dx="-12.0698" dy="14.2642"/>
<feGaussianBlur stdDeviation="3.84037"/>
<feColorMatrix type="matrix" values="0 0 0 0 0 0 0 0 0 0 0 0 0 0 0 0 0 0 0.03 0"/>
<feBlend mode="multiply" in2="effect1_dropShadow_10146_354" result="effect2_dropShadow_10146_354"/>
<feBlend mode="normal" in="SourceGraphic" in2="effect2_dropShadow_10146_354" result="shape"/>
</filter>
<clipPath id="clip0_10146_354">
<rect width="22" height="26" fill="white" transform="translate(12 10.4162)"/>
</clipPath>
</defs>
</svg>
