<svg width="22" height="22" viewBox="0 0 22 22" fill="none" xmlns="http://www.w3.org/2000/svg">
<path fill-rule="evenodd" clip-rule="evenodd" d="M12.167 0.902319C11.5237 -0.300773 9.83484 -0.300773 9.19151 0.902319L7.06556 4.87916C6.53545 5.87071 5.73849 6.68588 4.7693 7.22821L0.881943 9.40321C-0.293981 10.0613 -0.293981 11.789 0.881943 12.4472L4.7693 14.6222C5.73857 15.1644 6.53545 15.9797 7.06556 16.9711L9.19151 20.9481C9.83484 22.1512 11.5237 22.1511 12.167 20.948L14.293 16.9711C14.8231 15.9797 15.62 15.1644 16.5892 14.6222L20.4766 12.4472C21.6526 11.789 21.6526 10.0613 20.4765 9.40321L16.5892 7.22821C15.62 6.68588 14.8231 5.87071 14.293 4.87916L12.167 0.902319Z" fill="white" fill-opacity="0.75"/>
</svg>
