<svg width="24" height="24" viewBox="0 0 24 24" fill="none" xmlns="http://www.w3.org/2000/svg">
<path opacity="0.3" d="M18.9444 8.389V6.72233C18.9444 5.80185 18.1982 5.05566 17.2778 5.05566H6.72222C5.80175 5.05566 5.05556 5.80185 5.05556 6.72233V8.389C5.05556 9.30948 5.80175 10.0557 6.72222 10.0557H17.2778C18.1982 10.0557 18.9444 9.30948 18.9444 8.389Z" fill="white"/>
<path d="M12.2778 17.2777V15.611C12.2778 14.6906 11.5316 13.9443 10.6111 13.9443H6.72222C5.80175 13.9443 5.05556 14.6906 5.05556 15.611V17.2777C5.05556 18.1981 5.80175 18.9443 6.72222 18.9443H10.6111C11.5316 18.9443 12.2778 18.1981 12.2778 17.2777Z" fill="#EDEDED" fill-opacity="0.3"/>
<path d="M18.9444 8.389V6.72233C18.9444 5.80185 18.1982 5.05566 17.2778 5.05566H6.72222C5.80175 5.05566 5.05556 5.80185 5.05556 6.72233V8.389C5.05556 9.30948 5.80175 10.0557 6.72222 10.0557H17.2778C18.1982 10.0557 18.9444 9.30948 18.9444 8.389Z" stroke="white" stroke-width="1.11111" stroke-linecap="round" stroke-linejoin="round"/>
<path opacity="0.3" d="M12.2778 17.2777V15.611C12.2778 14.6906 11.5316 13.9443 10.6111 13.9443H6.72222C5.80175 13.9443 5.05556 14.6906 5.05556 15.611V17.2777C5.05556 18.1981 5.80175 18.9443 6.72222 18.9443H10.6111C11.5316 18.9443 12.2778 18.1981 12.2778 17.2777Z" fill="white" stroke="white" stroke-width="1.11111" stroke-linecap="round" stroke-linejoin="round"/>
<path d="M12.2778 17.2777V15.611C12.2778 14.6906 11.5316 13.9443 10.6111 13.9443H6.72222C5.80175 13.9443 5.05556 14.6906 5.05556 15.611V17.2777C5.05556 18.1981 5.80175 18.9443 6.72222 18.9443H10.6111C11.5316 18.9443 12.2778 18.1981 12.2778 17.2777Z" stroke="white" stroke-width="1.11111" stroke-linecap="round" stroke-linejoin="round"/>
</svg>
