<svg width="32" height="32" viewBox="0 0 32 32" fill="none" xmlns="http://www.w3.org/2000/svg">
<path fill-rule="evenodd" clip-rule="evenodd" d="M15.0482 1.77343C15.6482 1.79426 16.3444 1.95115 17.0997 2.12137L17.1773 2.13887C23.1613 3.48641 27.9654 7.67278 29.6457 13.1066L29.6705 13.1868L29.7776 13.5348C29.9524 14.1093 30.1032 14.6547 30.1482 15.1495C30.2122 15.8524 30.0726 16.4986 29.6116 17.1238C29.12 17.7903 28.4668 18.0923 27.7297 18.2255C27.5888 18.2511 27.4404 18.271 27.2854 18.2867C26.854 23.7704 22.6913 28.2416 17.2097 29.7704L17.1304 29.7926C16.4088 29.994 15.7313 30.1831 15.1352 30.2256C14.4353 30.2754 13.7908 30.1322 13.175 29.6647C12.5222 29.1691 12.2313 28.5154 12.103 27.7848C12.0949 27.7386 12.0873 27.6917 12.0803 27.6438C7.91529 27.3438 4.3405 24.9996 2.64957 21.6486L2.60851 21.5671C2.31598 20.988 2.01559 20.3935 1.89745 19.8158C1.75132 19.1021 1.87706 18.4443 2.29186 17.7706C2.75106 17.0245 3.39383 16.6504 4.1689 16.4843C4.31956 16.452 4.47826 16.4271 4.64399 16.4079C5.11226 12.8518 8.21903 10.1429 11.9892 9.73087L11.9894 6.21712C11.9912 5.46785 12.0043 4.80109 12.0966 4.24902C12.2166 3.53162 12.4885 2.87971 13.1153 2.37845C13.7132 1.90025 14.3548 1.74936 15.0482 1.77343ZM25.2718 18.3431H13.9897V25.8015C13.9922 26.5519 14.0056 27.0558 14.0729 27.4387C14.1421 27.8332 14.2465 27.9671 14.3844 28.0718C14.5593 28.2044 14.7051 28.2511 14.9931 28.2307C15.2809 28.2102 15.6353 28.1275 16.1687 27.983L16.6723 27.844C21.397 26.5262 24.8208 22.7811 25.2718 18.3431ZM11.9892 18.3431H6.6193C5.61156 18.3431 5.01493 18.3484 4.58813 18.4399C4.25346 18.5116 4.12156 18.6134 3.99503 18.819C3.82396 19.0968 3.82103 19.2402 3.85676 19.4148C3.91476 19.6984 4.08384 20.0511 4.43517 20.7476C5.75597 23.3652 8.58077 25.3083 11.9892 25.6296V18.3431ZM14.9788 3.77221C14.6624 3.76123 14.5174 3.81802 14.3645 3.9403C14.2404 4.03954 14.1371 4.17396 14.0693 4.57889C14.0009 4.9876 13.9908 5.53127 13.9894 6.35441L13.9892 9.67643L13.9902 16.3431H25.4568C26.3685 16.3424 26.9471 16.3346 27.3737 16.2575C27.7605 16.1875 27.894 16.0831 28.002 15.9367C28.1404 15.749 28.1812 15.6027 28.1565 15.3307C28.1239 14.9721 27.986 14.5093 27.735 13.6975C26.2893 9.02217 22.1028 5.29812 16.738 4.09C15.8785 3.89647 15.3684 3.78573 14.9788 3.77221ZM11.9892 11.7443C9.24157 12.1216 7.15705 14.0275 6.68411 16.3431H11.9892V11.7443Z" fill="white"/>
</svg>
