<svg width="32" height="32" viewBox="0 0 32 32" fill="none" xmlns="http://www.w3.org/2000/svg">
<path d="M10.2521 19.2979C13.7691 17.1231 18.2301 17.1231 21.7472 19.2979C21.8509 19.362 21.9821 19.4391 22.1329 19.5273C22.8159 19.927 23.8999 20.5615 24.6398 21.3135C25.1045 21.7858 25.568 22.4296 25.6525 23.2324C25.7428 24.0912 25.379 24.8863 24.6837 25.5742C23.5349 26.7108 22.1112 27.667 20.2452 27.667H11.754C9.8881 27.667 8.4644 26.7108 7.31557 25.5742C6.62027 24.8863 6.25553 24.0912 6.34584 23.2324C6.43032 22.4298 6.89396 21.7858 7.35854 21.3135C8.09841 20.5614 9.18332 19.927 9.86635 19.5273C10.0172 19.4391 10.1484 19.362 10.2521 19.2979ZM20.6954 20.999C17.823 19.2229 14.1763 19.2229 11.3038 20.999C11.1314 21.1056 10.9467 21.2147 10.756 21.3271C10.0735 21.7296 9.31528 22.1761 8.78432 22.7158C8.45794 23.0476 8.3511 23.29 8.3351 23.4414C8.32506 23.5368 8.33041 23.7641 8.7228 24.1523C9.69946 25.1186 10.6437 25.667 11.754 25.667H20.2452C21.3555 25.667 22.2998 25.1186 23.2765 24.1523C23.6689 23.7641 23.6742 23.5368 23.6642 23.4414C23.6482 23.29 23.5405 23.0477 23.214 22.7158C22.683 22.1762 21.9257 21.7295 21.2433 21.3271C21.0526 21.2147 20.8678 21.1056 20.6954 20.999ZM6.57631 16.3369C7.12619 16.2874 7.61247 16.6933 7.66225 17.2432C7.71201 17.7932 7.30604 18.2793 6.756 18.3291C5.90232 18.4064 5.0431 18.7367 4.256 19.3428C4.12917 19.4404 3.99716 19.5372 3.8644 19.6348C3.41167 19.9675 2.94569 20.3099 2.61342 20.7305C2.41621 20.9802 2.34532 21.1683 2.33412 21.3008C2.32567 21.4019 2.34034 21.58 2.56948 21.8623C3.23 22.6761 3.76824 23 4.30092 23C4.85311 23.0001 5.30092 23.4478 5.30092 24C5.30092 24.5522 4.85311 24.9999 4.30092 25C2.83546 25 1.78321 24.0664 1.01674 23.1221C0.516191 22.5052 0.283059 21.8284 0.341937 21.1318C0.39818 20.4666 0.710118 19.913 1.04409 19.4902C1.56677 18.8287 2.3428 18.265 2.79702 17.9346C2.89257 17.8651 2.97353 17.8054 3.0353 17.7578C4.10769 16.932 5.32494 16.4501 6.57631 16.3369ZM25.423 16.3369C26.6742 16.4501 27.8907 16.9321 28.963 17.7578C29.0248 17.8054 29.1066 17.865 29.2023 17.9346C29.6564 18.265 30.4316 18.8288 30.9542 19.4902C31.2882 19.913 31.6011 20.4666 31.6573 21.1318C31.7162 21.8285 31.4822 22.5051 30.9816 23.1221C30.2151 24.0664 29.1637 24.9999 27.6984 25C27.1461 25 26.6984 24.5523 26.6984 24C26.6984 23.4477 27.1461 23 27.6984 23C28.2309 22.9999 28.7685 22.6758 29.4288 21.8623C29.658 21.5799 29.6726 21.4019 29.6642 21.3008C29.653 21.1683 29.5822 20.9802 29.3849 20.7305C29.0526 20.3098 28.5867 19.9675 28.1339 19.6348C28.0013 19.5373 27.87 19.4403 27.7433 19.3428C26.9561 18.7366 26.096 18.4063 25.2423 18.3291C24.6924 18.2792 24.2873 17.7931 24.337 17.2432C24.3868 16.6932 24.873 16.2872 25.423 16.3369ZM7.33315 7C7.88526 7.0002 8.33315 7.44784 8.33315 8C8.33315 8.55216 7.88526 8.9998 7.33315 9C6.04459 9 4.99934 10.0445 4.99916 11.333C4.99916 12.6217 6.04448 13.667 7.33315 13.667C7.88526 13.6672 8.33315 14.1148 8.33315 14.667C8.33297 15.219 7.88515 15.6668 7.33315 15.667C4.93991 15.667 2.99916 13.7262 2.99916 11.333C2.99934 8.93992 4.94002 7 7.33315 7ZM15.9991 4.33301C19.1287 4.33301 21.6661 6.87039 21.6661 10C21.6661 13.1296 19.1287 15.667 15.9991 15.667C12.8696 15.6669 10.3331 13.1295 10.3331 10C10.3331 6.87046 12.8696 4.33313 15.9991 4.33301ZM23.9991 7C26.3923 7 28.3329 8.93992 28.3331 11.333C28.3331 13.7262 26.3924 15.667 23.9991 15.667C23.4471 15.6669 22.9993 15.2191 22.9991 14.667C22.9991 14.1148 23.4469 13.6671 23.9991 13.667C25.2878 13.667 26.3331 12.6217 26.3331 11.333C26.3329 10.0445 25.2877 9 23.9991 9C23.4469 8.99988 22.9991 8.55221 22.9991 8C22.9991 7.44779 23.4469 7.00012 23.9991 7ZM15.9991 6.33301C13.9742 6.33313 12.3331 7.97503 12.3331 10C12.3331 12.025 13.9742 13.6669 15.9991 13.667C18.0242 13.667 19.6661 12.025 19.6661 10C19.6661 7.97496 18.0242 6.33301 15.9991 6.33301Z" fill="white"/>
</svg>
