<svg width="32" height="32" viewBox="0 0 32 32" fill="none" xmlns="http://www.w3.org/2000/svg">
<path fill-rule="evenodd" clip-rule="evenodd" d="M16 1.66699C17.6569 1.66699 19 3.01014 19 4.66699C18.9999 5.97263 18.1645 7.08005 17 7.49219V9.66699H17.4063C19.2296 9.66696 20.6995 9.66687 21.8555 9.82227C23.0556 9.98362 24.0666 10.3283 24.8691 11.1309C25.6717 11.9334 26.0164 12.9444 26.1777 14.1445C26.2139 14.4138 26.2404 14.7001 26.2617 15.0039C26.7887 15.0102 27.258 15.0278 27.6611 15.082C28.3167 15.1702 28.9454 15.3692 29.4551 15.8789C29.9644 16.3884 30.1628 17.0166 30.251 17.6719C30.3332 18.2835 30.3331 19.0481 30.333 19.9346V20.0654C30.3331 20.9519 30.3332 21.7165 30.251 22.3281C30.1628 22.9834 29.9644 23.6116 29.4551 24.1211C28.9454 24.6308 28.3167 24.8298 27.6611 24.918C27.258 24.9722 26.7887 24.9888 26.2617 24.9951C26.2404 25.2993 26.214 25.5859 26.1777 25.8555C26.0164 27.0556 25.6717 28.0666 24.8691 28.8691C24.0666 29.6717 23.0556 30.0164 21.8555 30.1777C20.6995 30.3331 19.2296 30.333 17.4063 30.333H14.5938C12.7704 30.333 11.3005 30.3331 10.1445 30.1777C8.94439 30.0164 7.93342 29.6717 7.13086 28.8691C6.32831 28.0666 5.98362 27.0556 5.82227 25.8555C5.78603 25.5859 5.75861 25.2993 5.73731 24.9951C5.21077 24.9888 4.74179 24.9721 4.33887 24.918C3.68335 24.8298 3.05459 24.6308 2.54492 24.1211C2.0356 23.6116 1.83716 22.9834 1.74903 22.3281C1.66679 21.7165 1.66695 20.9519 1.66699 20.0654V19.9346C1.66695 19.0481 1.66679 18.2835 1.74903 17.6719C1.83716 17.0166 2.0356 16.3884 2.54492 15.8789C3.05459 15.3692 3.68335 15.1702 4.33887 15.082C4.74179 15.0279 5.21076 15.0102 5.73731 15.0039C5.7586 14.7001 5.78607 14.4138 5.82227 14.1445C5.98362 12.9444 6.32831 11.9334 7.13086 11.1309C7.93342 10.3283 8.94439 9.98362 10.1445 9.82227C11.3005 9.66687 12.7704 9.66696 14.5938 9.66699H15V7.49219C13.8355 7.08005 13.0001 5.97263 13 4.66699C13 3.01014 14.3431 1.66699 16 1.66699ZM14.667 11.667C12.7533 11.667 11.4182 11.6684 10.4111 11.8037C9.43277 11.9352 8.91394 12.1759 8.54492 12.5449C8.17591 12.9139 7.93525 13.4328 7.80371 14.4111C7.66836 15.4182 7.667 16.7533 7.667 18.667V21.333C7.667 23.2467 7.66836 24.5818 7.80371 25.5889C7.93525 26.5672 8.17591 27.0861 8.54492 27.4551C8.91394 27.8241 9.43277 28.0648 10.4111 28.1963C11.4182 28.3316 12.7533 28.333 14.667 28.333H17.333C19.2467 28.333 20.5818 28.3316 21.5889 28.1963C22.5672 28.0648 23.0861 27.8241 23.4551 27.4551C23.8241 27.0861 24.0648 26.5672 24.1963 25.5889C24.3316 24.5818 24.333 23.2467 24.333 21.333V18.667C24.333 16.7533 24.3316 15.4182 24.1963 14.4111C24.0648 13.4328 23.8241 12.9139 23.4551 12.5449C23.0861 12.1759 22.5672 11.9352 21.5889 11.8037C20.5818 11.6684 19.2467 11.667 17.333 11.667H14.667ZM18.0801 22.5234C18.5211 22.2038 19.1388 22.296 19.4668 22.7334C19.7981 23.1752 19.7084 23.8024 19.2666 24.1338L19.2656 24.1348L19.2637 24.1357L19.252 24.1445L19.2314 24.1592C19.216 24.1701 19.1968 24.1832 19.1738 24.1982C19.1278 24.2284 19.0665 24.2667 18.9902 24.3096C18.8378 24.3953 18.6249 24.501 18.3516 24.6035C17.8025 24.8094 17.0168 25 16 25C14.9836 25 14.1984 24.8093 13.6494 24.6035C13.3759 24.501 13.1623 24.3953 13.0098 24.3096C12.9335 24.2667 12.8722 24.2284 12.8262 24.1982C12.8032 24.1832 12.784 24.1701 12.7686 24.1592L12.748 24.1445L12.7363 24.1357L12.7354 24.1348L12.7334 24.1338C12.2916 23.8024 12.2019 23.1752 12.5332 22.7334C12.8612 22.296 13.4789 22.2039 13.9199 22.5234L13.9189 22.5225L13.9238 22.5264L13.9902 22.5664C14.06 22.6056 14.1808 22.6664 14.3516 22.7305C14.6914 22.8579 15.2393 23 16 23C16.761 23 17.3096 22.8579 17.6494 22.7305C17.8199 22.6665 17.9401 22.6056 18.0098 22.5664C18.0442 22.547 18.0665 22.5327 18.0762 22.5264L18.0801 22.5234ZM5.67285 17.0068C5.22923 17.0133 4.88678 17.0266 4.60547 17.0645C4.17204 17.1227 4.03612 17.2169 3.95996 17.293C3.88386 17.3691 3.78977 17.505 3.73145 17.9385C3.66927 18.401 3.66699 19.0289 3.66699 20C3.66699 20.9711 3.66927 21.599 3.73145 22.0615C3.78977 22.495 3.88386 22.6309 3.95996 22.707C4.03612 22.7831 4.17203 22.8773 4.60547 22.9355C4.88678 22.9734 5.22923 22.9858 5.67285 22.9922C5.66832 22.4964 5.66699 21.968 5.667 21.4062V18.5938C5.66699 18.0316 5.66831 17.5029 5.67285 17.0068ZM26.3262 17.0068C26.3307 17.5029 26.333 18.0316 26.333 18.5938V21.4062C26.333 21.968 26.3307 22.4964 26.3262 22.9922C26.7703 22.9858 27.113 22.9734 27.3945 22.9355C27.828 22.8773 27.9639 22.7831 28.04 22.707C28.1161 22.6309 28.2102 22.495 28.2686 22.0615C28.3307 21.599 28.333 20.9711 28.333 20C28.333 19.0289 28.3307 18.401 28.2686 17.9385C28.2102 17.505 28.1161 17.3691 28.04 17.293C27.9639 17.2169 27.828 17.1227 27.3945 17.0645C27.113 17.0266 26.7703 17.0132 26.3262 17.0068ZM12 16.333C12.5522 16.333 12.9998 16.7809 13 17.333V18.667C12.9998 19.2191 12.5522 19.667 12 19.667C11.4478 19.667 11.0002 19.2191 11 18.667V17.333C11.0002 16.7809 11.4478 16.333 12 16.333ZM20 16.333C20.5522 16.333 20.9998 16.7809 21 17.333V18.667C20.9998 19.2191 20.5522 19.667 20 19.667C19.4478 19.667 19.0002 19.2191 19 18.667V17.333C19.0002 16.7809 19.4478 16.333 20 16.333ZM16 3.66699C15.4477 3.66699 15 4.11471 15 4.66699C15.0002 5.21913 15.4478 5.66699 16 5.66699C16.5522 5.66699 16.9998 5.21913 17 4.66699C17 4.11471 16.5523 3.66699 16 3.66699Z" fill="white"/>
</svg>
