<svg width="18" height="11" viewBox="0 0 18 11" fill="none" xmlns="http://www.w3.org/2000/svg">
<path d="M0 0.970588C0 0.434547 0.34538 0 0.771429 0H17.2286C17.6546 0 18 0.434547 18 0.970588C18 1.50663 17.6546 1.94118 17.2286 1.94118H0.771429C0.345381 1.94118 0 1.50663 0 0.970588Z" fill="#F1F2F4"/>
<path d="M0 5.5C0 4.96396 0.34538 4.52941 0.771429 4.52941H17.2286C17.6546 4.52941 18 4.96396 18 5.5C18 6.03604 17.6546 6.47059 17.2286 6.47059H0.771429C0.345381 6.47059 0 6.03604 0 5.5Z" fill="#F1F2F4"/>
<path d="M0 10.0294C0 9.49337 0.34538 9.05882 0.771429 9.05882H17.2286C17.6546 9.05882 18 9.49337 18 10.0294C18 10.5655 17.6546 11 17.2286 11H0.771429C0.345381 11 0 10.5655 0 10.0294Z" fill="#F1F2F4"/>
</svg>
