<svg width="163" height="38" viewBox="0 0 163 38" fill="none" xmlns="http://www.w3.org/2000/svg">
<path d="M31.1679 18.251C30.9278 9.85223 24.0439 3.11749 15.587 3.11749C12.9088 3.11749 10.3884 3.79294 8.18674 4.98277L31.1679 18.251Z" fill="#3D4858"/>
<path d="M5.99518 6.41729C5.35004 6.92161 4.74564 7.47562 4.18773 8.07358L30.4973 23.2634C30.7337 22.489 30.9115 21.689 31.0255 20.8685L5.99518 6.41729Z" fill="#3D4858"/>
<path d="M26.9866 29.3359C26.4287 29.9339 25.8243 30.4879 25.1792 30.9923L0.14864 16.5409C0.262589 15.7204 0.440395 14.9204 0.676877 14.146L26.9866 29.3359Z" fill="#3D4858"/>
<path d="M28.465 27.4897L1.5384 11.9436C1.87871 11.2378 2.27064 10.5616 2.70929 9.91982L29.6358 25.4658C29.2955 26.1717 28.9036 26.8479 28.465 27.4897Z" fill="#3D4858"/>
<path d="M15.587 34.2923C18.2654 34.2923 20.7859 33.6168 22.9877 32.4268L0.00610352 19.1584C0.246068 27.5573 7.13003 34.2923 15.587 34.2923Z" fill="#3D4858"/>
<path d="M58.2634 19.0556C58.2634 17.9255 57.6399 17.1851 56.7046 17.1851C55.711 17.1851 54.9316 17.7306 54.0743 19.1335V25.7192H45.9244C41.6963 25.7192 38.9685 23.1278 38.9685 18.9192C38.9685 14.7106 41.6963 12.1192 45.9244 12.1192H49.1977V14.7496H45.9244C43.6447 14.7496 42.2808 16.2693 42.2808 18.9192C42.2808 21.569 43.6447 23.0888 45.9244 23.0888H51.0347V11.3008H54.0743V16.0745C54.99 15.0613 56.1591 14.6521 57.3281 14.6521C59.8026 14.6521 61.3029 16.3278 61.3029 18.8607V25.7192H58.2634V19.0556Z" fill="#3D4858"/>
<path d="M68.3099 17.1851C69.1283 17.1851 69.479 17.8475 69.479 18.8607V20.322H72.538V18.8607C72.538 16.094 71.0572 14.6521 68.9724 14.6521C67.8618 14.6521 66.9266 15.1392 66.1277 16.094L66.0693 14.8859H63.1271V25.7192H66.1667V18.9581C66.9655 17.7891 67.628 17.1851 68.3099 17.1851Z" fill="#3D4858"/>
<path fill-rule="evenodd" clip-rule="evenodd" d="M78.8584 25.953C75.3902 25.953 73.2859 23.8292 73.2859 20.3026C73.2859 16.7759 75.3902 14.6521 78.8584 14.6521C82.3266 14.6521 84.4114 16.7759 84.4114 20.3026C84.4114 23.8292 82.3266 25.953 78.8584 25.953ZM76.3254 20.3026C76.3254 22.3094 77.2802 23.498 78.8584 23.498C80.4171 23.498 81.3718 22.3094 81.3718 20.3026C81.3718 18.2957 80.4171 17.1071 78.8584 17.1071C77.2802 17.1071 76.3254 18.2957 76.3254 20.3026Z" fill="#3D4858"/>
<path d="M98.1033 17.1656C99.136 17.1656 99.7985 17.8281 99.7985 18.9192V25.7192H102.838V18.9192C102.838 16.2498 101.104 14.6521 98.9606 14.6521C97.285 14.6521 96.0185 15.3925 95.3561 16.5421C94.6936 15.3341 93.4271 14.6521 91.9463 14.6521C90.7188 14.6521 89.5498 15.2561 88.8094 16.1914L88.7509 14.8859H85.8088V25.7192H88.8483V18.8412C89.4523 17.8475 90.2317 17.1656 91.1085 17.1656C92.1217 17.1656 92.8036 17.8281 92.8036 18.9192V25.7192H95.8432V18.8802C96.4472 17.867 97.2265 17.1656 98.1033 17.1656Z" fill="#3D4858"/>
<path fill-rule="evenodd" clip-rule="evenodd" d="M111.124 25.7192L111.066 24.6475C110.325 25.5828 109.176 25.953 107.831 25.953C105.727 25.953 104.344 24.6086 104.344 22.6991C104.344 20.4584 106.117 19.192 109.039 19.192H111.027V18.4516C111.027 17.4189 110.306 16.7954 109.078 16.7954C107.87 16.7954 107.091 17.3799 106.994 18.3347H104.032C104.227 16.055 106.175 14.6521 109.215 14.6521C112.176 14.6521 114.066 16.094 114.066 18.6464V25.7192H111.124ZM107.325 22.5043C107.325 23.0888 107.734 23.5564 108.591 23.5564C109.643 23.5564 110.442 23.0304 111.027 22.1341V21.2963L108.981 21.3157C107.968 21.3157 107.325 21.6665 107.325 22.5043Z" fill="#3D4858"/>
<path d="M116.657 21.8223C116.657 24.1215 118.098 25.7192 120.3 25.7192H123.028V23.2642H121.508C120.183 23.2642 119.696 22.9524 119.696 21.8223V17.341H121.917V14.8859H119.696V11.3008H116.657V14.8859H114.806V17.341H116.657V21.8223Z" fill="#3D4858"/>
<path fill-rule="evenodd" clip-rule="evenodd" d="M128.998 25.953C125.529 25.953 123.425 23.8292 123.425 20.3026C123.425 16.7759 125.529 14.6521 128.998 14.6521C132.466 14.6521 134.551 16.7759 134.551 20.3026C134.551 23.8292 132.466 25.953 128.998 25.953ZM126.465 20.3026C126.465 22.3094 127.419 23.498 128.998 23.498C130.556 23.498 131.511 22.3094 131.511 20.3026C131.511 18.2957 130.556 17.1071 128.998 17.1071C127.419 17.1071 126.465 18.2957 126.465 20.3026Z" fill="#3D4858"/>
<path fill-rule="evenodd" clip-rule="evenodd" d="M135.441 20.3026C135.441 23.8292 137.546 25.953 141.014 25.953C144.482 25.953 146.567 23.8292 146.567 20.3026C146.567 16.7759 144.482 14.6521 141.014 14.6521C137.546 14.6521 135.441 16.7759 135.441 20.3026ZM141.014 23.498C139.436 23.498 138.481 22.3094 138.481 20.3026C138.481 18.2957 139.436 17.1071 141.014 17.1071C142.573 17.1071 143.527 18.2957 143.527 20.3026C143.527 22.3094 142.573 23.498 141.014 23.498Z" fill="#3D4858"/>
<path d="M152.316 21.8418C152.355 24.3943 154.187 25.953 157.168 25.953C159.974 25.953 161.669 24.6281 161.669 22.4263C161.669 19.7485 159.453 19.3291 157.692 18.9959C156.532 18.7764 155.57 18.5943 155.57 17.8281C155.57 17.2046 156.077 16.8539 156.934 16.8539C157.947 16.8539 158.61 17.3799 158.668 18.3347H161.474C161.279 16.016 159.74 14.6521 157.032 14.6521C154.362 14.6521 152.55 15.8991 152.55 18.0229C152.55 20.5656 154.736 21.0765 156.49 21.4866C157.666 21.7615 158.649 21.9912 158.649 22.7576C158.649 23.3811 158.084 23.7513 157.168 23.7513C155.843 23.7513 155.064 23.0304 155.122 21.8418H152.316Z" fill="#3D4858"/>
<path d="M147.984 25.7192V11.3008H151.023V25.7192H147.984Z" fill="#3D4858"/>
</svg>
