<svg width="183" height="38" viewBox="0 0 183 38" fill="none" xmlns="http://www.w3.org/2000/svg">
<path d="M12.4699 6.23499L16.4378 14.737L24.9398 18.7049L16.4378 22.6728L12.4699 31.1748L8.50201 22.6728L0 18.7049L8.50201 14.737L12.4699 6.23499Z" fill="#3D4858"/>
<path opacity="0.5" d="M15.624 24.4166L20.5761 23.5646L23.3818 31.1748L26.1875 23.5646L34.1811 24.9399L28.9933 18.7049L34.1811 12.4699L26.1875 13.8452L23.3818 6.23499L20.5761 13.8452L15.624 12.9932L16.4378 14.737L24.9398 18.7049L16.4378 22.6728L15.624 24.4166Z" fill="#3D4858"/>
<path d="M48.6864 25.9905C43.6689 25.9905 40.5272 22.668 40.5272 17.3792C40.5272 12.1582 43.8497 8.72275 48.8447 8.72275C53.026 8.72275 56.032 11.1185 56.5518 14.8704H52.6869C52.1897 13.1979 50.7658 12.2486 48.7542 12.2486C46.042 12.2486 44.3921 14.1698 44.3921 17.3566C44.3921 20.4983 46.0646 22.4646 48.7542 22.4646C50.811 22.4646 52.3253 21.4475 52.7774 19.7976H56.5744C55.9868 23.5269 52.8678 25.9905 48.6864 25.9905Z" fill="#3D4858"/>
<path d="M57.7575 20.0462C57.7575 16.4751 60.3793 14.0794 63.9956 14.0794C67.5893 14.0794 70.2111 16.4751 70.2111 20.0462C70.2111 23.6173 67.5893 25.9905 63.9956 25.9905C60.3793 25.9905 57.7575 23.6173 57.7575 20.0462ZM61.2608 20.0236C61.2608 21.7413 62.3683 22.8714 63.9956 22.8714C65.6003 22.8714 66.7078 21.7413 66.7078 20.0236C66.7078 18.3285 65.6003 17.1984 63.9956 17.1984C62.3683 17.1984 61.2608 18.3285 61.2608 20.0236Z" fill="#3D4858"/>
<path d="M75.4836 25.7192H72.0029V14.4184H75.2802L75.5062 15.5937C76.2069 14.6218 77.4952 14.0568 78.9643 14.0568C81.6539 14.0568 83.2134 15.7745 83.2134 18.7353V25.7192H79.7327V19.5716C79.7327 18.1477 78.9417 17.221 77.7438 17.221C76.3651 17.221 75.4836 18.1251 75.4836 19.5264V25.7192Z" fill="#3D4858"/>
<path d="M84.5375 22.1482H87.8374C87.8826 22.9392 88.4702 23.4139 89.5325 23.4139C90.6174 23.4139 91.1146 23.0296 91.1146 22.442C91.1146 22.103 90.9338 21.7413 90.0976 21.5605L88.0182 21.1085C85.9389 20.6565 84.9218 19.7524 84.9218 17.7634C84.9218 15.4129 86.9333 14.0568 89.6455 14.0568C92.2673 14.0568 94.0981 15.5937 94.0981 17.8765H90.7982C90.7982 17.108 90.3236 16.5882 89.4873 16.5882C88.6963 16.5882 88.199 16.995 88.199 17.6052C88.199 18.1251 88.6285 18.4189 89.4195 18.5997L91.5215 19.0517C93.3748 19.4586 94.3919 20.3174 94.3919 22.1256C94.3919 24.544 92.3351 26.0131 89.3969 26.0131C86.4135 26.0131 84.5375 24.431 84.5375 22.1482Z" fill="#3D4858"/>
<path d="M102.652 22.6906L103.059 25.4932C102.403 25.8097 101.545 25.9905 100.595 25.9905C98.2674 25.9905 96.6401 24.9282 96.6401 21.7639V17.3114H94.9223V14.4184H96.6401V10.9151H100.121V14.4184H102.63V17.3114H100.121V21.0407C100.121 22.4646 100.686 22.894 101.499 22.894C101.838 22.894 102.245 22.8262 102.652 22.6906Z" fill="#3D4858"/>
<path d="M109.412 26.0131C105.999 26.0131 103.558 23.5269 103.558 20.0462C103.558 16.5203 105.931 14.0568 109.344 14.0568C112.892 14.0568 115.107 16.3847 115.107 20.0688V20.9503L106.903 20.9955C107.106 22.4872 107.943 23.1879 109.479 23.1879C110.79 23.1879 111.717 22.7132 111.966 21.8996H115.152C114.746 24.4083 112.508 26.0131 109.412 26.0131ZM109.366 16.882C107.988 16.882 107.219 17.4922 106.948 18.8483H111.649C111.649 17.6504 110.768 16.882 109.366 16.882Z" fill="#3D4858"/>
<path d="M120.423 25.7192H116.942V8.67755H120.423V25.7192Z" fill="#3D4858"/>
<path d="M126.289 25.7192H122.808V8.67755H126.289V25.7192Z" fill="#3D4858"/>
<path d="M137.331 14.4184H140.517V25.7192H137.24L137.059 24.2727C136.404 25.1316 135.161 26.0357 133.375 26.0357C130.008 26.0357 128.064 23.4591 128.064 19.888C128.064 16.2491 130.256 14.0568 133.398 14.0568C135.003 14.0568 136.517 14.7574 137.15 15.7971L137.331 14.4184ZM137.014 20.0688C137.014 18.3737 135.884 17.2436 134.257 17.2436C132.607 17.2436 131.567 18.3963 131.567 20.0688C131.567 21.7413 132.607 22.894 134.257 22.894C135.884 22.894 137.014 21.7639 137.014 20.0688Z" fill="#3D4858"/>
<path d="M149.573 22.6906L149.98 25.4932C149.324 25.8097 148.465 25.9905 147.516 25.9905C145.188 25.9905 143.561 24.9282 143.561 21.7639V17.3114H141.843V14.4184H143.561V10.9151H147.041V14.4184H149.55V17.3114H147.041V21.0407C147.041 22.4646 147.606 22.894 148.42 22.894C148.759 22.894 149.166 22.8262 149.573 22.6906Z" fill="#3D4858"/>
<path d="M152.917 12.6555C151.809 12.6555 150.928 11.774 150.928 10.6665C150.928 9.55902 151.809 8.70015 152.917 8.70015C154.002 8.70015 154.883 9.55902 154.883 10.6665C154.883 11.774 154.002 12.6555 152.917 12.6555ZM151.199 25.7192V14.4184H154.68V25.7192H151.199Z" fill="#3D4858"/>
<path d="M156.455 20.0462C156.455 16.4751 159.076 14.0794 162.693 14.0794C166.286 14.0794 168.908 16.4751 168.908 20.0462C168.908 23.6173 166.286 25.9905 162.693 25.9905C159.076 25.9905 156.455 23.6173 156.455 20.0462ZM159.958 20.0236C159.958 21.7413 161.065 22.8714 162.693 22.8714C164.297 22.8714 165.405 21.7413 165.405 20.0236C165.405 18.3285 164.297 17.1984 162.693 17.1984C161.065 17.1984 159.958 18.3285 159.958 20.0236Z" fill="#3D4858"/>
<path d="M174.181 25.7192H170.7V14.4184H173.977L174.203 15.5937C174.904 14.6218 176.192 14.0568 177.661 14.0568C180.351 14.0568 181.911 15.7745 181.911 18.7353V25.7192H178.43V19.5716C178.43 18.1477 177.639 17.221 176.441 17.221C175.062 17.221 174.181 18.1251 174.181 19.5264V25.7192Z" fill="#3D4858"/>
</svg>
