<svg width="136" height="38" viewBox="0 0 136 38" fill="none" xmlns="http://www.w3.org/2000/svg">
<path fill-rule="evenodd" clip-rule="evenodd" d="M31.1748 18.7049C31.1748 27.3136 24.1961 34.2923 15.5874 34.2923C7.94333 34.2923 1.58442 28.7899 0.255341 21.5298C0.251335 21.5079 0.247373 21.486 0.243458 21.4641C0.0834856 20.5685 0 19.6465 0 18.7049C0 17.9532 0.0532148 17.2139 0.156082 16.4905C1.12836 9.65394 6.53644 4.24585 13.373 3.27357C13.3845 3.27194 13.396 3.27032 13.4075 3.26872C14.1198 3.16903 14.8476 3.11749 15.5874 3.11749C16.552 3.11749 17.4962 3.20512 18.4123 3.37283C25.6724 4.70191 31.1748 11.0608 31.1748 18.7049ZM27.2779 18.7049C27.2779 25.1614 22.0439 30.3954 15.5874 30.3954C10.7219 30.3954 6.55066 27.4231 4.79032 23.1953C5.51343 23.3175 6.25645 23.3811 7.01433 23.3811C14.3317 23.3811 20.2636 17.4492 20.2636 10.1318C20.2636 9.37394 20.2 8.63092 20.0778 7.90781C24.3056 9.66815 27.2779 13.8394 27.2779 18.7049ZM15.8355 7.01692C16.1796 7.99127 16.3668 9.03969 16.3668 10.1318C16.3668 15.297 12.1795 19.4843 7.01433 19.4843C5.92219 19.4843 4.87378 19.2971 3.89943 18.953C3.89771 18.8705 3.89685 18.7878 3.89685 18.7049C3.89685 12.2484 9.13088 7.01434 15.5874 7.01434C15.6703 7.01434 15.753 7.0152 15.8355 7.01692Z" fill="#3D4858"/>
<path d="M38.9685 25.7192V9.35239H49.6537V11.7606H41.9613V16.2498H48.9522V18.5879H41.9613V23.3109H49.6537V25.7192H38.9685Z" fill="#3D4858"/>
<path d="M56.6943 25.9997C55.5096 25.9997 54.4653 25.7425 53.5612 25.2281C52.6571 24.7138 51.9401 23.9967 51.4102 23.0771C50.8958 22.1574 50.6386 21.1053 50.6386 19.9206C50.6386 18.736 50.8958 17.6839 51.4102 16.7642C51.9401 15.8445 52.6571 15.1275 53.5612 14.6131C54.4653 14.0987 55.5096 13.8416 56.6943 13.8416C58.1751 13.8416 59.4221 14.2312 60.4353 15.0106C61.4484 15.7744 62.0953 16.8343 62.3759 18.1904H59.2194C59.0636 17.6293 58.7518 17.1928 58.2842 16.8811C57.8322 16.5538 57.2944 16.3901 56.6709 16.3901C55.8448 16.3901 55.1433 16.7018 54.5666 17.3253C53.9899 17.9488 53.7015 18.8139 53.7015 19.9206C53.7015 21.0273 53.9899 21.8924 54.5666 22.5159C55.1433 23.1394 55.8448 23.4512 56.6709 23.4512C57.2944 23.4512 57.8322 23.2953 58.2842 22.9836C58.7518 22.6718 59.0636 22.2276 59.2194 21.6508H62.3759C62.0953 22.9602 61.4484 24.0123 60.4353 24.8073C59.4221 25.6022 58.1751 25.9997 56.6943 25.9997Z" fill="#3D4858"/>
<path d="M63.6293 25.7192V8.88477H66.6221V25.7192H63.6293Z" fill="#3D4858"/>
<path d="M69.8905 12.3218C69.345 12.3218 68.8929 12.1581 68.5344 11.8308C68.1915 11.5034 68.02 11.0904 68.02 10.5916C68.02 10.0928 68.1915 9.68752 68.5344 9.37577C68.8929 9.04843 69.345 8.88477 69.8905 8.88477C70.4361 8.88477 70.8803 9.04843 71.2233 9.37577C71.5818 9.68752 71.761 10.0928 71.761 10.5916C71.761 11.0904 71.5818 11.5034 71.2233 11.8308C70.8803 12.1581 70.4361 12.3218 69.8905 12.3218ZM68.3941 25.7192V14.1221H71.3869V25.7192H68.3941Z" fill="#3D4858"/>
<path d="M73.1078 30.863V14.1221H75.7733L76.1006 15.7822C76.4747 15.2678 76.9657 14.8158 77.5736 14.4261C78.1971 14.0364 78.9998 13.8416 79.9818 13.8416C81.073 13.8416 82.0472 14.1065 82.9045 14.6365C83.7618 15.1665 84.4398 15.8913 84.9386 16.811C85.4374 17.7306 85.6868 18.775 85.6868 19.944C85.6868 21.1131 85.4374 22.1574 84.9386 23.0771C84.4398 23.9812 83.7618 24.6982 82.9045 25.2281C82.0472 25.7425 81.073 25.9997 79.9818 25.9997C79.109 25.9997 78.3452 25.8361 77.6905 25.5087C77.0358 25.1814 76.5059 24.7216 76.1006 24.1292V30.863H73.1078ZM79.3506 23.381C80.3014 23.381 81.0886 23.0615 81.712 22.4224C82.3355 21.7833 82.6473 20.9572 82.6473 19.944C82.6473 18.9308 82.3355 18.0969 81.712 17.4422C81.0886 16.7876 80.3014 16.4602 79.3506 16.4602C78.3841 16.4602 77.5892 16.7876 76.9657 17.4422C76.3578 18.0813 76.0538 18.9075 76.0538 19.9206C76.0538 20.9338 76.3578 21.7677 76.9657 22.4224C77.5892 23.0615 78.3841 23.381 79.3506 23.381Z" fill="#3D4858"/>
<path d="M91.7506 25.9997C90.7218 25.9997 89.8177 25.8361 89.0384 25.5087C88.259 25.1658 87.6355 24.6982 87.1679 24.1059C86.7003 23.5135 86.4197 22.8277 86.3262 22.0483H89.3423C89.4358 22.5004 89.6852 22.89 90.0905 23.2174C90.5114 23.5291 91.0491 23.685 91.7038 23.685C92.3585 23.685 92.8339 23.5525 93.1301 23.2875C93.4418 23.0225 93.5977 22.7186 93.5977 22.3757C93.5977 21.8769 93.3795 21.5417 92.943 21.3703C92.5066 21.1832 91.8987 21.004 91.1193 20.8325C90.6205 20.7234 90.1139 20.5909 89.5995 20.435C89.0851 20.2792 88.6097 20.0843 88.1733 19.8505C87.7524 19.6011 87.4095 19.2894 87.1445 18.9153C86.8795 18.5256 86.747 18.0502 86.747 17.489C86.747 16.4602 87.1523 15.5951 87.9628 14.8937C88.789 14.1923 89.9424 13.8416 91.4232 13.8416C92.7949 13.8416 93.8861 14.1611 94.6966 14.8002C95.5227 15.4393 96.0137 16.32 96.1696 17.4422H93.3405C93.169 16.5849 92.5222 16.1563 91.3999 16.1563C90.8387 16.1563 90.4023 16.2654 90.0905 16.4836C89.7944 16.7018 89.6463 16.9746 89.6463 17.302C89.6463 17.6449 89.8723 17.9177 90.3243 18.1203C90.7764 18.3229 91.3765 18.51 92.1247 18.6814C92.9352 18.8685 93.6756 19.0789 94.3459 19.3127C95.0317 19.531 95.5773 19.8661 95.9825 20.3181C96.3878 20.7546 96.5905 21.3859 96.5905 22.212C96.606 22.929 96.419 23.5759 96.0293 24.1526C95.6396 24.7294 95.0785 25.1814 94.3459 25.5087C93.6133 25.8361 92.7482 25.9997 91.7506 25.9997Z" fill="#3D4858"/>
<path d="M103.474 25.9997C102.305 25.9997 101.268 25.7503 100.364 25.2515C99.4599 24.7527 98.7506 24.0513 98.2363 23.1472C97.7219 22.2432 97.4647 21.1988 97.4647 20.0142C97.4647 18.8139 97.7141 17.7462 98.2129 16.811C98.7273 15.8757 99.4287 15.1509 100.317 14.6365C101.221 14.1065 102.281 13.8416 103.497 13.8416C104.635 13.8416 105.64 14.091 106.513 14.5898C107.386 15.0885 108.064 15.7744 108.547 16.6473C109.046 17.5046 109.296 18.4632 109.296 19.5232C109.296 19.6946 109.288 19.8739 109.272 20.0609C109.272 20.248 109.264 20.4428 109.249 20.6455H100.434C100.496 21.5495 100.808 22.2588 101.369 22.7731C101.946 23.2875 102.64 23.5447 103.45 23.5447C104.058 23.5447 104.565 23.4122 104.97 23.1472C105.391 22.8667 105.703 22.5081 105.905 22.0717H108.945C108.727 22.8043 108.36 23.4746 107.846 24.0825C107.347 24.6748 106.724 25.1424 105.975 25.4853C105.243 25.8283 104.409 25.9997 103.474 25.9997ZM103.497 16.2732C102.764 16.2732 102.118 16.4836 101.556 16.9045C100.995 17.3098 100.637 17.9332 100.481 18.775H106.256C106.209 18.0112 105.929 17.4033 105.414 16.9512C104.9 16.4992 104.261 16.2732 103.497 16.2732Z" fill="#3D4858"/>
<path d="M109.942 25.7192L111.532 16.6239H109.942L110.386 14.1221H111.976L112.21 12.766C112.46 11.3632 112.989 10.3656 113.8 9.77325C114.626 9.18093 115.655 8.88477 116.886 8.88477H118.149L117.681 11.4333H116.886C116.372 11.4333 115.982 11.5346 115.717 11.7373C115.468 11.9399 115.296 12.2828 115.203 12.766L114.969 14.1221H117.471L117.027 16.6239H114.525L112.935 25.7192H109.942Z" fill="#3D4858"/>
<path d="M120.775 25.9997C119.559 25.9997 118.624 25.6724 117.97 25.0177C117.315 24.3475 116.988 23.3888 116.988 22.1418C116.988 21.7054 117.034 21.2144 117.128 20.6688L118.297 14.1221H121.266L120.167 20.3883C120.136 20.5753 120.113 20.7546 120.097 20.926C120.082 21.0819 120.074 21.23 120.074 21.3703C120.074 22.7731 120.76 23.4746 122.131 23.4746C122.973 23.4746 123.714 23.1862 124.353 22.6095C124.992 22.0171 125.405 21.2144 125.592 20.2012L126.644 14.1221H129.637L127.603 25.7192H124.96L125.054 23.8019C124.571 24.4722 123.963 25.0099 123.23 25.4152C122.498 25.8049 121.679 25.9997 120.775 25.9997Z" fill="#3D4858"/>
<path d="M129.271 25.7192L132.264 8.88477H135.257L132.264 25.7192H129.271Z" fill="#3D4858"/>
</svg>
