<svg width="24" height="24" viewBox="0 0 24 24" fill="none" xmlns="http://www.w3.org/2000/svg">
<path d="M17.999 1.25C18.4132 1.25 18.75 1.58579 18.75 2V5.5C18.75 5.91421 18.4142 6.25 18 6.25H15C14.0925 6.25 13.9132 6.47122 13.8721 6.53223C13.8351 6.58713 13.7971 6.68017 13.7744 6.85156C13.7509 7.02926 13.75 7.23164 13.75 7.5V8.75H18C18.2308 8.75 18.4487 8.85628 18.5908 9.03809C18.7329 9.22006 18.7835 9.45765 18.7275 9.68164L17.7275 13.6816C17.6441 14.0155 17.3442 14.25 17 14.25H13.75V22C13.75 22.4142 13.4142 22.75 13 22.75H9C8.58579 22.75 8.25 22.4142 8.25 22V14.25H5C4.58579 14.25 4.25 13.9142 4.25 13.5V9.5C4.25 9.08579 4.58579 8.75 5 8.75H8.25V6.7002C8.25 5.01569 8.78822 3.63155 9.78223 2.66992C10.7716 1.71281 12.1339 1.25009 13.6426 1.25H17.999Z" fill="#8290A3"/>
</svg>
