<svg width="161" height="38" viewBox="0 0 161 38" fill="none" xmlns="http://www.w3.org/2000/svg">
<path fill-rule="evenodd" clip-rule="evenodd" d="M10.6887 3.11749C8.93017 3.11749 7.2437 3.81607 6.00022 5.05955L0 11.0597V13.8062C0 15.7466 0.833489 17.4923 2.16198 18.7049C0.833489 19.9174 0 21.6631 0 23.6035V26.35L6.00022 32.3502C7.2437 33.5937 8.93017 34.2923 10.6887 34.2923C12.6291 34.2923 14.3749 33.4588 15.5874 32.1303C16.7999 33.4588 18.5456 34.2923 20.486 34.2923C22.2446 34.2923 23.9311 33.5937 25.1746 32.3502L31.1748 26.35V23.6035C31.1748 21.6631 30.3413 19.9174 29.0128 18.7049C30.3413 17.4923 31.1748 15.7466 31.1748 13.8062V11.0597L25.1746 5.05955C23.9311 3.81607 22.2446 3.11749 20.486 3.11749C18.5456 3.11749 16.7999 3.95098 15.5874 5.27947C14.3749 3.95098 12.6291 3.11749 10.6887 3.11749ZM20.0756 18.7049C20.0009 18.6367 19.9275 18.5666 19.8557 18.4948L15.5874 14.2265L11.3191 18.4948C11.2472 18.5666 11.1739 18.6367 11.0992 18.7049C11.1739 18.7731 11.2472 18.8431 11.3191 18.915L15.5874 23.1833L19.8557 18.915C19.9275 18.8431 20.0009 18.7731 20.0756 18.7049ZM17.3193 26.35V27.6617C17.3193 29.4106 18.7371 30.8284 20.486 30.8284C21.3259 30.8284 22.1314 30.4948 22.7253 29.9009L27.711 24.9152V23.6035C27.711 21.8546 26.2931 20.4368 24.5442 20.4368C23.7044 20.4368 22.8989 20.7704 22.305 21.3643L17.3193 26.35ZM13.8555 26.35L8.86977 21.3643C8.27589 20.7704 7.47045 20.4368 6.63058 20.4368C4.88165 20.4368 3.46386 21.8546 3.46386 23.6035V24.9152L8.44954 29.9009C9.04342 30.4948 9.8489 30.8284 10.6887 30.8284C12.4376 30.8284 13.8555 29.4106 13.8555 27.6617V26.35ZM13.8555 9.74807V11.0597L8.86977 16.0454C8.27589 16.6393 7.47045 16.973 6.63058 16.973C4.88165 16.973 3.46386 15.5551 3.46386 13.8062V12.4945L8.44954 7.50887C9.04342 6.91499 9.8489 6.58136 10.6887 6.58136C12.4376 6.58136 13.8555 7.99914 13.8555 9.74807ZM22.305 16.0454L17.3193 11.0597V9.74807C17.3193 7.99914 18.7371 6.58136 20.486 6.58136C21.3259 6.58136 22.1314 6.91499 22.7253 7.50887L27.711 12.4945V13.8062C27.711 15.5551 26.2931 16.973 24.5442 16.973C23.7044 16.973 22.8989 16.6393 22.305 16.0454Z" fill="#3D4858"/>
<path d="M47.8728 12.0412V14.7106H42.3003V17.5943H46.4699V20.1857H42.3003V25.7192H38.9685V12.0412H47.8728Z" fill="#3D4858"/>
<path d="M52.5661 11.3008V25.7192H49.2343V11.3008H52.5661Z" fill="#3D4858"/>
<path d="M59.5399 25.8751C58.4748 25.8751 57.5135 25.6477 56.6562 25.1931C55.8119 24.7385 55.143 24.089 54.6494 23.2447C54.1688 22.4004 53.9284 21.4132 53.9284 20.2831C53.9284 19.166 54.1752 18.1853 54.6688 17.341C55.1624 16.4837 55.8379 15.8277 56.6952 15.373C57.5525 14.9184 58.5137 14.6911 59.5789 14.6911C60.644 14.6911 61.6052 14.9184 62.4625 15.373C63.3199 15.8277 63.9953 16.4837 64.4889 17.341C64.9825 18.1853 65.2293 19.166 65.2293 20.2831C65.2293 21.4002 64.976 22.3874 64.4694 23.2447C63.9758 24.089 63.2939 24.7385 62.4236 25.1931C61.5663 25.6477 60.605 25.8751 59.5399 25.8751ZM59.5399 22.9914C60.1764 22.9914 60.7155 22.7576 61.1571 22.29C61.6117 21.8223 61.8391 21.1534 61.8391 20.2831C61.8391 19.4128 61.6182 18.7438 61.1766 18.2762C60.7479 17.8086 60.2154 17.5748 59.5789 17.5748C58.9294 17.5748 58.3903 17.8086 57.9617 18.2762C57.533 18.7308 57.3187 19.3998 57.3187 20.2831C57.3187 21.1534 57.5265 21.8223 57.9422 22.29C58.3709 22.7576 58.9034 22.9914 59.5399 22.9914Z" fill="#3D4858"/>
<path d="M69.939 16.659C70.3287 16.0615 70.8158 15.5939 71.4003 15.2561C71.9849 14.9054 72.6343 14.7301 73.3488 14.7301V18.2567H72.433C71.6017 18.2567 70.9782 18.4386 70.5625 18.8023C70.1468 19.153 69.939 19.7765 69.939 20.6728V25.7192H66.6072V14.847H69.939V16.659Z" fill="#3D4858"/>
<path d="M73.8891 20.2636C73.8891 19.1465 74.097 18.1658 74.5126 17.3215C74.9413 16.4772 75.5193 15.8277 76.2467 15.373C76.9741 14.9184 77.786 14.6911 78.6823 14.6911C79.4486 14.6911 80.1176 14.847 80.6891 15.1587C81.2737 15.4705 81.7218 15.8796 82.0336 16.3862V14.847H85.3654V25.7192H82.0336V24.1799C81.7088 24.6865 81.2542 25.0957 80.6697 25.4074C80.0981 25.7192 79.4292 25.8751 78.6628 25.8751C77.7795 25.8751 76.9741 25.6477 76.2467 25.1931C75.5193 24.7255 74.9413 24.0695 74.5126 23.2252C74.097 22.3679 73.8891 21.3807 73.8891 20.2636ZM82.0336 20.2831C82.0336 19.4517 81.7997 18.7958 81.3321 18.3152C80.8775 17.8346 80.3189 17.5943 79.6565 17.5943C78.994 17.5943 78.429 17.8346 77.9613 18.3152C77.5067 18.7828 77.2794 19.4323 77.2794 20.2636C77.2794 21.0949 77.5067 21.7574 77.9613 22.251C78.429 22.7316 78.994 22.9719 79.6565 22.9719C80.3189 22.9719 80.8775 22.7316 81.3321 22.251C81.7997 21.7704 82.0336 21.1144 82.0336 20.2831Z" fill="#3D4858"/>
<path d="M95.9786 25.7192L94.7901 24.0825C94.4134 24.6151 93.9068 25.0437 93.2703 25.3685C92.6468 25.6932 91.9454 25.8556 91.166 25.8556C90.2827 25.8556 89.5034 25.6672 88.8279 25.2905C88.1655 24.9138 87.6524 24.4072 87.2887 23.7708C86.938 23.1213 86.7626 22.4004 86.7626 21.608C86.7626 20.5429 87.0613 19.6401 87.6589 18.8997C88.2564 18.1593 89.0098 17.7112 89.919 17.5553C89.5943 17.1136 89.354 16.685 89.1981 16.2693C89.0422 15.8407 88.9643 15.3925 88.9643 14.9249C88.9643 14.3404 89.1202 13.7883 89.4319 13.2687C89.7437 12.7492 90.1983 12.3335 90.7958 12.0218C91.4063 11.71 92.1338 11.5541 92.9781 11.5541C94.1471 11.5541 95.0694 11.8204 95.7448 12.353C96.4333 12.8856 96.8554 13.5545 97.0113 14.3599C97.0892 14.7106 97.1282 15.0678 97.1282 15.4315C97.1282 15.7173 97.1152 15.9316 97.0892 16.0745H93.9328C93.9848 15.8407 93.9977 15.5744 93.9718 15.2756C93.9588 14.9899 93.8678 14.7625 93.699 14.5937C93.5301 14.4118 93.3028 14.3209 93.017 14.3209C92.7572 14.3209 92.5429 14.4053 92.3741 14.5742C92.2182 14.7431 92.1402 14.9509 92.1402 15.1977C92.1402 15.3795 92.1792 15.5679 92.2571 15.7627C92.3481 15.9446 92.4975 16.1784 92.7053 16.4642L99.5053 25.7192H95.9786ZM91.1855 23.1083C91.6272 23.1083 91.9974 22.9589 92.2961 22.6602C92.5949 22.3614 92.7443 21.9847 92.7443 21.5301C92.7443 21.0884 92.5949 20.7247 92.2961 20.439C91.9974 20.1402 91.6272 19.9908 91.1855 19.9908C90.7439 19.9908 90.3737 20.1402 90.0749 20.439C89.7891 20.7247 89.6463 21.0884 89.6463 21.5301C89.6463 21.9847 89.7891 22.3614 90.0749 22.6602C90.3737 22.9589 90.7439 23.1083 91.1855 23.1083Z" fill="#3D4858"/>
<path d="M109.353 12.0412V14.7106H103.781V17.5943H107.95V20.1857H103.781V25.7192H100.449V12.0412H109.353Z" fill="#3D4858"/>
<path d="M110.052 20.2636C110.052 19.1465 110.26 18.1658 110.676 17.3215C111.104 16.4772 111.682 15.8277 112.41 15.373C113.137 14.9184 113.949 14.6911 114.845 14.6911C115.612 14.6911 116.281 14.847 116.852 15.1587C117.437 15.4705 117.885 15.8796 118.197 16.3862V14.847H121.528V25.7192H118.197V24.1799C117.872 24.6865 117.417 25.0957 116.833 25.4074C116.261 25.7192 115.592 25.8751 114.826 25.8751C113.943 25.8751 113.137 25.6477 112.41 25.1931C111.682 24.7255 111.104 24.0695 110.676 23.2252C110.26 22.3679 110.052 21.3807 110.052 20.2636ZM118.197 20.2831C118.197 19.4517 117.963 18.7958 117.495 18.3152C117.041 17.8346 116.482 17.5943 115.82 17.5943C115.157 17.5943 114.592 17.8346 114.124 18.3152C113.67 18.7828 113.442 19.4323 113.442 20.2636C113.442 21.0949 113.67 21.7574 114.124 22.251C114.592 22.7316 115.157 22.9719 115.82 22.9719C116.482 22.9719 117.041 22.7316 117.495 22.251C117.963 21.7704 118.197 21.1144 118.197 20.2831Z" fill="#3D4858"/>
<path d="M134.285 14.847V25.7192H130.953V24.2384C130.615 24.719 130.154 25.1087 129.57 25.4074C128.998 25.6932 128.362 25.8361 127.66 25.8361C126.829 25.8361 126.095 25.6542 125.459 25.2905C124.822 24.9138 124.329 24.3748 123.978 23.6733C123.627 22.9719 123.452 22.1471 123.452 21.1988V14.847H126.764V20.7507C126.764 21.4781 126.952 22.0432 127.329 22.4458C127.706 22.8485 128.212 23.0498 128.849 23.0498C129.498 23.0498 130.011 22.8485 130.388 22.4458C130.765 22.0432 130.953 21.4781 130.953 20.7507V14.847H134.285Z" fill="#3D4858"/>
<path d="M142.913 14.7301C144.186 14.7301 145.199 15.1457 145.953 15.9771C146.719 16.7954 147.102 17.9255 147.102 19.3673V25.7192H143.79V19.8155C143.79 19.088 143.602 18.523 143.225 18.1203C142.848 17.7177 142.342 17.5163 141.705 17.5163C141.069 17.5163 140.562 17.7177 140.185 18.1203C139.809 18.523 139.62 19.088 139.62 19.8155V25.7192H136.288V14.847H139.62V16.2888C139.958 15.8082 140.413 15.4315 140.984 15.1587C141.556 14.873 142.199 14.7301 142.913 14.7301Z" fill="#3D4858"/>
<path d="M148.365 20.2636C148.365 19.1465 148.573 18.1658 148.989 17.3215C149.418 16.4772 149.996 15.8277 150.723 15.373C151.45 14.9184 152.262 14.6911 153.159 14.6911C153.925 14.6911 154.594 14.847 155.165 15.1587C155.75 15.4705 156.198 15.8796 156.51 16.3862V14.847H159.842V25.7192H156.51V24.1799C156.185 24.6865 155.73 25.0957 155.146 25.4074C154.574 25.7192 153.905 25.8751 153.139 25.8751C152.256 25.8751 151.45 25.6477 150.723 25.1931C149.996 24.7255 149.418 24.0695 148.989 23.2252C148.573 22.3679 148.365 21.3807 148.365 20.2636ZM156.51 20.2831C156.51 19.4517 156.276 18.7958 155.808 18.3152C155.354 17.8346 154.795 17.5943 154.133 17.5943C153.47 17.5943 152.905 17.8346 152.438 18.3152C151.983 18.7828 151.756 19.4323 151.756 20.2636C151.756 21.0949 151.983 21.7574 152.438 22.251C152.905 22.7316 153.47 22.9719 154.133 22.9719C154.795 22.9719 155.354 22.7316 155.808 22.251C156.276 21.7704 156.51 21.1144 156.51 20.2831Z" fill="#3D4858"/>
</svg>
