<svg width="71" height="38" viewBox="0 0 71 38" fill="none" xmlns="http://www.w3.org/2000/svg">
<rect x="1.94842" y="12.0803" width="30.3954" height="13.2493" rx="6.62464" stroke="#3D4858" stroke-width="3.89685"/>
<path d="M45.5635 8.90033H41.8911V25.914H45.5635V8.90033Z" fill="#3D4858"/>
<path d="M51.0467 9.6797H47.5426V25.914H51.0467V21.5653L55.6138 25.914H60.3504L53.6127 19.5879L60.002 14.5819H55.076L51.0467 17.8212V9.6797Z" fill="#3D4858"/>
<path d="M106.822 8.90033H103.149V25.914H116.081V22.6624H106.822V8.90033Z" fill="#3D4858"/>
<path fill-rule="evenodd" clip-rule="evenodd" d="M133.271 9.6797H129.767V25.914H133.496L133.365 24.9567C134.19 25.8227 135.325 26.2507 136.759 26.2507C137.699 26.2507 138.56 26.0096 139.312 25.4785C140.06 24.9507 140.628 24.2271 141.04 23.3164C141.452 22.4045 141.667 21.3666 141.667 20.2059C141.667 19.0861 141.452 18.0694 141.04 17.1585C140.627 16.2458 140.059 15.5441 139.312 15.0174L139.309 15.0152C138.561 14.509 137.702 14.2452 136.759 14.2452C135.27 14.2452 134.104 14.7066 133.271 15.6404V9.6797ZM133.942 18.1411C134.389 17.598 134.964 17.3284 135.686 17.3284C136.385 17.3284 136.964 17.5972 137.433 18.1245C137.902 18.6729 138.142 19.3618 138.142 20.2269C138.142 21.1144 137.902 21.8035 137.432 22.3517C136.963 22.8989 136.385 23.1675 135.686 23.1675C134.964 23.1675 134.389 22.8979 133.943 22.3548L133.94 22.3517C133.472 21.806 133.25 21.1183 133.25 20.2269C133.25 19.3789 133.471 18.6908 133.94 18.1442L133.942 18.1411Z" fill="#3D4858"/>
<path d="M62.1646 9.32119C61.5277 9.32119 61.0163 9.52817 60.5999 9.9215L60.5959 9.92537C60.1797 10.3416 59.9707 10.8544 59.9707 11.452C59.9707 12.0894 60.1782 12.603 60.5959 13.0207C61.0172 13.442 61.5329 13.6249 62.1646 13.6249C62.782 13.6249 63.2953 13.4166 63.7122 12.9996C64.1292 12.5827 64.3375 12.0695 64.3375 11.452C64.3375 10.8544 64.1285 10.3415 63.7123 9.92532L63.7082 9.9215C63.2925 9.52889 62.7814 9.32119 62.1646 9.32119Z" fill="#3D4858"/>
<path d="M93.7463 9.32119C93.1095 9.32119 92.5981 9.52818 92.1816 9.9215L92.1776 9.92537C91.7614 10.3416 91.5524 10.8544 91.5524 11.452C91.5524 12.0894 91.7599 12.603 92.1776 13.0207C92.5989 13.442 93.1146 13.6249 93.7463 13.6249C94.3638 13.6249 94.877 13.4166 95.294 12.9996C95.7109 12.5827 95.9192 12.0695 95.9192 11.452C95.9192 10.8544 95.7102 10.3415 95.294 9.92532L95.29 9.9215C94.8743 9.52889 94.3632 9.32119 93.7463 9.32119Z" fill="#3D4858"/>
<path fill-rule="evenodd" clip-rule="evenodd" d="M70.2934 14.2452C69.3299 14.2452 68.471 14.5087 67.7222 15.0152L67.719 15.0174C66.9754 15.5423 66.384 16.2433 65.9907 17.1602C65.5777 18.0739 65.3849 19.1119 65.3849 20.269C65.3849 21.4056 65.5779 22.4028 65.9921 23.2758C66.3854 24.1488 66.9567 24.8102 67.7062 25.2736C68.4584 25.7598 69.317 25.9771 70.2934 25.9771C71.7736 25.9771 72.9387 25.5688 73.7601 24.7323V24.9826C73.7601 25.977 73.5719 26.6525 73.2004 27.061L73.1976 27.0643C72.8257 27.492 72.2572 27.7128 71.4508 27.7128C70.7732 27.7128 70.263 27.6096 69.8823 27.4002C69.5138 27.1975 69.303 26.895 69.267 26.4808L69.2516 26.3029H65.7258L65.7433 26.5139C65.8526 27.8247 66.3815 28.8293 67.363 29.4989C68.3144 30.1623 69.644 30.4593 71.3035 30.4593C73.2545 30.4593 74.7569 30.0172 75.7721 29.0933C76.7908 28.1662 77.2851 26.7851 77.2851 24.9826V14.5819H73.5354L73.665 15.5038C72.8521 14.6692 71.7209 14.2452 70.2934 14.2452ZM69.5786 18.0179C70.047 17.4714 70.6245 17.2022 71.3456 17.2022C72.044 17.2022 72.6214 17.4702 73.0902 18.0164C73.5403 18.5652 73.7811 19.2763 73.7811 20.1427C73.7811 21.0304 73.5402 21.719 73.0924 22.2454C72.6258 22.7696 72.0485 23.0202 71.3456 23.0202C70.5978 23.0202 70.0244 22.7679 69.5813 22.2285L69.5763 22.2228C69.1109 21.6993 68.889 21.0134 68.889 20.1427C68.889 19.2718 69.1111 18.5633 69.5786 18.0179Z" fill="#3D4858"/>
<path fill-rule="evenodd" clip-rule="evenodd" d="M83.5513 14.2452C82.5878 14.2452 81.7289 14.5087 80.9801 15.0152L80.9769 15.0174C80.2334 15.5423 79.6422 16.2431 79.2488 17.1386C78.836 18.0518 78.6428 19.0687 78.6428 20.2059C78.6428 21.363 78.8356 22.4009 79.2486 23.3146C79.6411 24.2297 80.2316 24.9524 80.9769 25.4785C81.7297 26.0099 82.591 26.2507 83.5513 26.2507C84.9759 26.2507 86.1075 25.8429 86.9212 25.0012L86.7923 25.914H90.543V14.5819H86.7923L86.9239 15.5138C86.0992 14.6734 84.9683 14.2452 83.5513 14.2452ZM82.1469 20.2269C82.1469 19.3579 82.368 18.6704 82.8354 18.1244C83.3041 17.5978 83.8824 17.3284 84.6035 17.3284C85.3019 17.3284 85.8801 17.5966 86.3492 18.123C86.7992 18.6723 87.039 19.3624 87.039 20.2269C87.039 21.1137 86.7985 21.8041 86.3481 22.3532C85.8793 22.8994 85.3019 23.1675 84.6035 23.1675C83.8824 23.1675 83.3049 22.8982 82.8365 22.3517C82.3687 21.806 82.1469 21.1183 82.1469 20.2269Z" fill="#3D4858"/>
<path fill-rule="evenodd" clip-rule="evenodd" d="M121.324 14.2452C120.361 14.2452 119.502 14.5087 118.753 15.0152L118.75 15.0174C118.006 15.5423 117.415 16.2431 117.022 17.1386C116.609 18.0518 116.416 19.0687 116.416 20.2059C116.416 21.3629 116.609 22.4008 117.021 23.3144C117.414 24.2296 118.005 24.9524 118.75 25.4785C119.503 26.0099 120.364 26.2507 121.324 26.2507C122.75 26.2507 123.882 25.8423 124.696 24.9993L124.569 25.914H128.316V14.5819H124.569L124.699 15.5156C123.874 14.674 122.742 14.2452 121.324 14.2452ZM119.92 20.2269C119.92 19.3579 120.141 18.6704 120.608 18.1245C121.077 17.5978 121.655 17.3284 122.376 17.3284C123.075 17.3284 123.653 17.5966 124.122 18.1229C124.572 18.6722 124.812 19.3624 124.812 20.2269C124.812 21.1138 124.571 21.8042 124.121 22.3534C123.652 22.8995 123.075 23.1675 122.376 23.1675C121.655 23.1675 121.078 22.8982 120.609 22.3517C120.142 21.806 119.92 21.1183 119.92 20.2269Z" fill="#3D4858"/>
<path d="M148.19 14.2452C146.565 14.2452 145.26 14.5872 144.292 15.2471L144.29 15.2488C143.311 15.9381 142.839 16.8817 142.839 18.0384C142.839 18.9116 143.058 19.6168 143.521 20.1265C143.968 20.6175 144.526 20.9519 145.148 21.1297C145.749 21.3015 146.517 21.4504 147.447 21.5773C148.321 21.7022 148.937 21.8466 149.342 21.9876C149.527 22.0624 149.651 22.154 149.728 22.2566C149.804 22.3576 149.847 22.4832 149.847 22.6469C149.847 22.9004 149.707 23.1436 149.398 23.3748C149.11 23.5912 148.696 23.6935 148.148 23.6935C147.502 23.6935 146.997 23.5524 146.618 23.2869C146.244 23.0254 146.049 22.6829 146.049 22.226V22.0311H142.562L142.566 22.2294C142.588 23.4872 143.099 24.4929 144.099 25.2038C145.069 25.9095 146.398 26.2507 148.063 26.2507C149.665 26.2507 150.951 25.9307 151.899 25.2687C152.854 24.603 153.351 23.703 153.351 22.5416C153.351 21.6248 153.11 20.8992 152.648 20.3904L152.644 20.387C152.182 19.9022 151.626 19.5452 151 19.3662L150.998 19.3657C150.379 19.195 149.592 19.0248 148.658 18.8974L148.651 18.8967C147.813 18.813 147.206 18.6886 146.834 18.5321L146.826 18.529C146.654 18.4654 146.542 18.3804 146.472 18.2844C146.403 18.1891 146.364 18.068 146.364 17.9122C146.364 17.5951 146.482 17.3375 146.769 17.1219C147.041 16.923 147.438 16.8024 148 16.8024C148.592 16.8024 149.03 16.9583 149.37 17.2205C149.681 17.4969 149.851 17.8663 149.889 18.3486L149.904 18.5279H153.368L153.35 18.316C153.24 17.0685 152.733 16.07 151.803 15.339C150.877 14.6114 149.674 14.2452 148.19 14.2452Z" fill="#3D4858"/>
<path d="M63.9166 14.5819H60.3915V25.914H63.9166V14.5819Z" fill="#3D4858"/>
<path d="M95.4983 14.5819H91.9732V25.914H95.4983V14.5819Z" fill="#3D4858"/>
</svg>
