<svg width="24" height="24" viewBox="0 0 24 24" fill="none" xmlns="http://www.w3.org/2000/svg">
<path d="M6.5 9C6.77614 9 7 9.22386 7 9.5V22C7 22.2761 6.77614 22.5 6.5 22.5H2C1.72386 22.5 1.5 22.2761 1.5 22V9.5C1.5 9.22386 1.72386 9 2 9H6.5ZM14 9C14.2761 9 14.5 9.22386 14.5 9.5V9.96484C15.2811 9.36068 16.2473 9 17.2969 9C19.8735 9.00007 22.4999 11.2012 22.5 14L22.499 22C22.499 22.276 22.275 22.4998 21.999 22.5H17.5C17.2239 22.5 17 22.2761 17 22V15.75C16.9999 15.0598 16.4403 14.5 15.75 14.5C15.0597 14.5 14.5001 15.0598 14.5 15.75V22C14.5 22.2761 14.2761 22.5 14 22.5H9.5C9.22386 22.5 9 22.2761 9 22V9.5C9 9.22386 9.22386 9 9.5 9H14ZM4.25 1.5C5.76878 1.5 7 2.73122 7 4.25C7 5.76878 5.76878 7 4.25 7C2.73122 7 1.5 5.76878 1.5 4.25C1.5 2.73122 2.73122 1.5 4.25 1.5Z" fill="#8290A3"/>
</svg>
