<svg width="138" height="38" viewBox="0 0 138 38" fill="none" xmlns="http://www.w3.org/2000/svg">
<path d="M0 18.7049C0 15.5099 1.01187 12.5512 2.73263 10.1318H10.1318V11.5183C7.78574 13.0479 6.23496 15.6953 6.23496 18.7049C6.23496 23.4396 10.0733 27.2779 14.808 27.2779V33.5129C6.62978 33.5129 0 26.8831 0 18.7049Z" fill="#3D4858"/>
<path d="M26.8834 27.2779C28.6042 24.8586 29.616 21.8999 29.616 18.7049C29.616 10.5266 22.9863 3.89685 14.808 3.89685V10.1318C19.5428 10.1318 23.3811 13.9701 23.3811 18.7049C23.3811 21.7145 21.8303 24.3618 19.4842 25.8915V27.2779H26.8834Z" fill="#3D4858"/>
<path d="M41.0712 8.99402V22.329H47.6709V25.7193H37.4097V8.99402H41.0712Z" fill="#3D4858"/>
<path d="M57.043 14.4184H60.5237V25.7193H57.2464L57.0204 24.4536C56.3198 25.3803 54.9185 26.0131 53.5624 26.0131C50.9858 26.0131 49.4037 24.2954 49.4037 21.5154V14.4184H52.8843V20.2497C52.8843 22.103 53.5172 22.9167 54.9411 22.9167C56.4328 22.9167 57.043 22.1482 57.043 20.2949V14.4184Z" fill="#3D4858"/>
<path d="M66.6163 25.7193H63.1356V14.4184H66.3903L66.6163 15.5937C67.1813 14.8027 68.2888 14.0568 69.9161 14.0568C71.6113 14.0568 72.6961 14.8479 73.3516 16.0458C73.9392 14.8479 75.2727 14.0568 76.9001 14.0568C79.8157 14.0568 81.2622 15.7519 81.2622 18.3285V25.7193H77.7815V19.3004C77.7815 17.8765 77.0357 17.1984 75.9282 17.1984C74.9337 17.1984 73.9392 17.7409 73.9392 19.662V25.7193H70.4586V19.3004C70.4586 17.8991 69.7353 17.221 68.6278 17.221C67.6334 17.221 66.6163 17.7635 66.6163 19.662V25.7193Z" fill="#3D4858"/>
<path d="M85.4686 12.6555C84.3611 12.6555 83.4796 11.774 83.4796 10.6665C83.4796 9.55906 84.3611 8.7002 85.4686 8.7002C86.5535 8.7002 87.4349 9.55906 87.4349 10.6665C87.4349 11.774 86.5535 12.6555 85.4686 12.6555ZM83.7509 25.7193V14.4184H87.2315V25.7193H83.7509Z" fill="#3D4858"/>
<path d="M93.3234 25.7193H89.8427V14.4184H93.12L93.346 15.5937C94.0466 14.6218 95.3349 14.0568 96.8041 14.0568C99.4937 14.0568 101.053 15.7745 101.053 18.7354V25.7193H97.5725V19.5716C97.5725 18.1477 96.7815 17.221 95.5836 17.221C94.2049 17.221 93.3234 18.1251 93.3234 19.5264V25.7193Z" fill="#3D4858"/>
<path d="M106.962 26.0131C104.567 26.0131 103.075 24.6118 103.075 22.3968C103.075 20.3175 104.544 19.0292 107.256 18.8258L110.42 18.5771V18.3963C110.42 17.2889 109.742 16.7012 108.499 16.7012C107.03 16.7012 106.239 17.2662 106.239 18.2833H103.346C103.346 15.7293 105.448 14.0568 108.68 14.0568C111.957 14.0568 113.811 15.8875 113.811 19.1196V25.7193H110.737L110.511 24.2276C110.149 25.2673 108.657 26.0131 106.962 26.0131ZM108.183 23.4365C109.516 23.4365 110.443 22.7811 110.443 21.4928V20.8825L108.68 21.0407C107.166 21.1763 106.623 21.5154 106.623 22.2386C106.623 23.0523 107.12 23.4365 108.183 23.4365Z" fill="#3D4858"/>
<path d="M124.082 14.4184V17.6957H122.975C120.986 17.6957 119.788 18.5771 119.788 20.8147V25.7193H116.307V14.441H119.584L119.765 16.1136C120.24 15.0061 121.234 14.2602 122.749 14.2602C123.155 14.2602 123.607 14.3054 124.082 14.4184Z" fill="#3D4858"/>
<path d="M125.269 31.1437V28.2281H127.19C128.366 28.2281 128.863 27.8665 129.315 26.646L129.518 26.1035L124.975 14.4184H128.705L131.168 21.6736L133.903 14.4184H137.519L131.778 28.1829C130.829 30.4883 129.563 31.4601 127.575 31.4601C126.738 31.4601 125.947 31.3471 125.269 31.1437Z" fill="#3D4858"/>
</svg>
