<svg width="138" height="38" viewBox="0 0 138 38" fill="none" xmlns="http://www.w3.org/2000/svg">
<path d="M13.3287 22.2786V33.5129H16.2903V22.2808L24.2322 30.2228L26.3264 28.1286L18.3834 20.1857H29.616V17.2241H18.3832L26.3262 9.28112L24.232 7.18695L16.2903 15.1287V3.89685H13.3287V15.1309L5.3847 7.18693L3.29052 9.2811L11.2335 17.2241H0V20.1857H11.2333L3.2903 28.1287L5.38447 30.2228L13.3287 22.2786Z" fill="#3D4858"/>
<path d="M37.4113 25.7192V10.4436H42.8887L45.922 23.7552H46.3148V10.4436H49.1517V25.7192H43.6743L40.641 12.4076H40.2482V25.7192H37.4113Z" fill="#3D4858"/>
<path d="M56.1768 26.0247C55.1003 26.0247 54.1328 25.8065 53.2745 25.3701C52.4161 24.9336 51.7396 24.3008 51.245 23.4715C50.7503 22.6423 50.503 21.6457 50.503 20.4819V20.1327C50.503 18.9688 50.7503 17.9723 51.245 17.143C51.7396 16.3138 52.4161 15.6809 53.2745 15.2445C54.1328 14.808 55.1003 14.5898 56.1768 14.5898C57.2534 14.5898 58.2209 14.808 59.0792 15.2445C59.9376 15.6809 60.614 16.3138 61.1087 17.143C61.6033 17.9723 61.8506 18.9688 61.8506 20.1327V20.4819C61.8506 21.6457 61.6033 22.6423 61.1087 23.4715C60.614 24.3008 59.9376 24.9336 59.0792 25.3701C58.2209 25.8065 57.2534 26.0247 56.1768 26.0247ZM56.1768 23.5806C57.0206 23.5806 57.7189 23.3115 58.2718 22.7732C58.8246 22.2204 59.101 21.4348 59.101 20.4164V20.1982C59.101 19.1798 58.8246 18.4015 58.2718 17.8632C57.7335 17.3103 57.0352 17.0339 56.1768 17.0339C55.333 17.0339 54.6347 17.3103 54.0819 17.8632C53.5291 18.4015 53.2526 19.1798 53.2526 20.1982V20.4164C53.2526 21.4348 53.5291 22.2204 54.0819 22.7732C54.6347 23.3115 55.333 23.5806 56.1768 23.5806Z" fill="#3D4858"/>
<path d="M63.2976 25.7192V14.8953H66.0035V16.1174H66.3963C66.5564 15.6809 66.8182 15.3609 67.1819 15.1572C67.5602 14.9535 67.9967 14.8517 68.4913 14.8517H69.8006V17.2958H68.4476C67.7493 17.2958 67.1747 17.4849 66.7237 17.8632C66.2727 18.2269 66.0472 18.7943 66.0472 19.5653V25.7192H63.2976Z" fill="#3D4858"/>
<path d="M75.0983 26.0247C73.6872 26.0247 72.5306 25.7192 71.6286 25.1082C70.7266 24.4972 70.181 23.6243 69.9919 22.4895L72.5233 21.8348C72.6251 22.344 72.7925 22.7441 73.0252 23.0351C73.2725 23.326 73.5708 23.537 73.9199 23.6679C74.2836 23.7843 74.6764 23.8425 75.0983 23.8425C75.7385 23.8425 76.2113 23.7334 76.5168 23.5152C76.8223 23.2824 76.9751 22.9987 76.9751 22.6641C76.9751 22.3295 76.8296 22.0749 76.5386 21.9003C76.2477 21.7112 75.7821 21.5584 75.142 21.442L74.531 21.3329C73.7745 21.1874 73.0834 20.991 72.4578 20.7437C71.8323 20.4819 71.3304 20.1254 70.9521 19.6744C70.5738 19.2234 70.3847 18.6415 70.3847 17.9286C70.3847 16.8521 70.7775 16.0301 71.5631 15.4627C72.3487 14.8808 73.3817 14.5898 74.6619 14.5898C75.8694 14.5898 76.8732 14.859 77.6734 15.3972C78.4735 15.9355 78.9973 16.6411 79.2446 17.514L76.6914 18.2996C76.575 17.7468 76.3349 17.354 75.9712 17.1212C75.6221 16.8884 75.1856 16.7721 74.6619 16.7721C74.1382 16.7721 73.7381 16.8666 73.4617 17.0557C73.1853 17.2303 73.047 17.4776 73.047 17.7977C73.047 18.1469 73.1925 18.4087 73.4835 18.5833C73.7745 18.7433 74.1673 18.867 74.6619 18.9543L75.2729 19.0634C76.0876 19.2089 76.8223 19.4053 77.477 19.6526C78.1462 19.8854 78.6699 20.2273 79.0482 20.6783C79.441 21.1147 79.6374 21.7112 79.6374 22.4677C79.6374 23.6025 79.2228 24.4826 78.3935 25.1082C77.5788 25.7192 76.4804 26.0247 75.0983 26.0247Z" fill="#3D4858"/>
<path d="M85.8876 26.0247C84.8111 26.0247 83.8581 25.7992 83.0289 25.3482C82.2142 24.8827 81.5741 24.2353 81.1085 23.4061C80.6575 22.5623 80.432 21.573 80.432 20.4382V20.1763C80.432 19.0416 80.6575 18.0596 81.1085 17.2303C81.5595 16.3865 82.1924 15.7391 83.0071 15.2881C83.8218 14.8226 84.7674 14.5898 85.844 14.5898C86.906 14.5898 87.8298 14.8299 88.6154 15.31C89.401 15.7755 90.0121 16.4302 90.4485 17.274C90.8849 18.1032 91.1032 19.0707 91.1032 20.1763V21.1147H83.2253C83.2544 21.8567 83.5308 22.4604 84.0546 22.926C84.5783 23.3915 85.2184 23.6243 85.9749 23.6243C86.746 23.6243 87.3134 23.457 87.6771 23.1224C88.0408 22.7878 88.3172 22.4168 88.5063 22.0094L90.754 23.1878C90.5503 23.5661 90.2521 23.9807 89.8593 24.4317C89.481 24.8682 88.9719 25.2464 88.3317 25.5665C87.6916 25.872 86.8769 26.0247 85.8876 26.0247ZM83.2471 19.0634H88.3099C88.2517 18.4378 87.9971 17.9359 87.5461 17.5577C87.1097 17.1794 86.535 16.9903 85.8222 16.9903C85.0802 16.9903 84.491 17.1794 84.0546 17.5577C83.6181 17.9359 83.349 18.4378 83.2471 19.0634Z" fill="#3D4858"/>
<path d="M102.125 26.0247C100.946 26.0247 99.906 25.8138 99.0041 25.3919C98.1021 24.97 97.3965 24.3662 96.8873 23.5806C96.3781 22.795 96.1235 21.8494 96.1235 20.7437V20.1327H98.9604V20.7437C98.9604 21.6603 99.2441 22.3513 99.8115 22.8168C100.379 23.2678 101.15 23.4933 102.125 23.4933C103.114 23.4933 103.849 23.2969 104.329 22.9041C104.823 22.5113 105.071 22.0094 105.071 21.3984C105.071 20.9765 104.947 20.6346 104.7 20.3727C104.467 20.1109 104.118 19.8999 103.652 19.7399C103.201 19.5653 102.648 19.4053 101.994 19.2598L101.492 19.1507C100.444 18.9179 99.5423 18.627 98.7858 18.2778C98.0439 17.9141 97.4692 17.4413 97.0619 16.8593C96.6691 16.2774 96.4727 15.5209 96.4727 14.5898C96.4727 13.6587 96.6909 12.8659 97.1273 12.2112C97.5783 11.542 98.2039 11.0328 99.0041 10.6836C99.8188 10.3199 100.772 10.1381 101.863 10.1381C102.954 10.1381 103.921 10.3272 104.765 10.7054C105.623 11.0691 106.293 11.622 106.773 12.3639C107.267 13.0914 107.515 14.0079 107.515 15.1136V15.7682H104.678V15.1136C104.678 14.5316 104.561 14.0661 104.329 13.7169C104.11 13.3532 103.79 13.0914 103.369 12.9313C102.947 12.7567 102.445 12.6695 101.863 12.6695C100.99 12.6695 100.342 12.8368 99.9206 13.1714C99.5132 13.4914 99.3096 13.9352 99.3096 14.5025C99.3096 14.8808 99.4041 15.2008 99.5933 15.4627C99.7969 15.7246 100.095 15.9428 100.488 16.1174C100.881 16.292 101.383 16.4447 101.994 16.5757L102.496 16.6848C103.587 16.9175 104.532 17.2158 105.333 17.5795C106.147 17.9432 106.78 18.4233 107.231 19.0198C107.682 19.6162 107.908 20.38 107.908 21.3111C107.908 22.2422 107.668 23.0642 107.187 23.777C106.722 24.4753 106.053 25.0282 105.18 25.4355C104.321 25.8283 103.303 26.0247 102.125 26.0247Z" fill="#3D4858"/>
<path d="M113.198 25.7192C112.485 25.7192 111.904 25.501 111.453 25.0646C111.016 24.6136 110.798 24.0171 110.798 23.2751V17.1649H108.092V14.8953H110.798V11.5347H113.547V14.8953H116.515V17.1649H113.547V22.795C113.547 23.2315 113.751 23.4497 114.158 23.4497H116.253V25.7192H113.198Z" fill="#3D4858"/>
<path d="M121.894 26.0247C121.021 26.0247 120.214 25.8138 119.472 25.3919C118.73 24.9554 118.133 24.3226 117.682 23.4933C117.231 22.6641 117.006 21.6603 117.006 20.4819V20.1327C117.006 18.9543 117.231 17.9505 117.682 17.1212C118.133 16.292 118.73 15.6664 119.472 15.2445C120.228 14.808 121.036 14.5898 121.894 14.5898C122.883 14.5898 123.633 14.7571 124.142 15.0917C124.665 15.4118 125.051 15.7828 125.298 16.2047H125.691V14.8953H128.397V22.795C128.397 23.2315 128.601 23.4497 129.008 23.4497H129.881V25.7192H127.699C127.175 25.7192 126.739 25.5737 126.389 25.2828C126.055 24.9918 125.887 24.5917 125.887 24.0825V24.0607H125.495C125.247 24.599 124.847 25.0646 124.294 25.4574C123.756 25.8356 122.956 26.0247 121.894 26.0247ZM122.723 23.6243C123.582 23.6243 124.287 23.3551 124.84 22.8168C125.407 22.264 125.691 21.4639 125.691 20.4164V20.1982C125.691 19.1507 125.407 18.3578 124.84 17.8195C124.273 17.2667 123.567 16.9903 122.723 16.9903C121.879 16.9903 121.174 17.2667 120.606 17.8195C120.039 18.3578 119.755 19.1507 119.755 20.1982V20.4164C119.755 21.4639 120.039 22.264 120.606 22.8168C121.174 23.3551 121.879 23.6243 122.723 23.6243Z" fill="#3D4858"/>
<path d="M130.845 25.7192V14.8953H133.551V16.1174H133.943C134.103 15.6809 134.365 15.3609 134.729 15.1572C135.107 14.9535 135.544 14.8517 136.038 14.8517H137.348V17.2958H135.995C135.296 17.2958 134.722 17.4849 134.271 17.8632C133.82 18.2269 133.594 18.7943 133.594 19.5653V25.7192H130.845Z" fill="#3D4858"/>
</svg>
