<svg width="149" height="38" viewBox="0 0 149 38" fill="none" xmlns="http://www.w3.org/2000/svg">
<rect y="3.11749" width="7.7937" height="7.7937" fill="#3D4858"/>
<rect opacity="0.6" x="15.5874" y="3.11749" width="7.7937" height="7.7937" fill="#3D4858"/>
<rect opacity="0.6" x="7.7937" y="10.9112" width="7.7937" height="7.7937" fill="#3D4858"/>
<rect opacity="0.45" x="15.5874" y="10.9112" width="7.7937" height="7.7937" fill="#3D4858"/>
<rect opacity="0.3" x="23.3811" y="10.9112" width="7.7937" height="7.7937" fill="#3D4858"/>
<rect opacity="0.6" y="18.7049" width="7.7937" height="7.7937" fill="#3D4858"/>
<rect opacity="0.45" x="7.7937" y="18.7049" width="7.7937" height="7.7937" fill="#3D4858"/>
<rect opacity="0.3" x="15.5874" y="18.7049" width="7.7937" height="7.7937" fill="#3D4858"/>
<rect opacity="0.15" x="23.3811" y="18.7049" width="7.7937" height="7.7937" fill="#3D4858"/>
<rect opacity="0.3" x="7.7937" y="26.4986" width="7.7937" height="7.7937" fill="#3D4858"/>
<rect opacity="0.15" x="15.5874" y="26.4986" width="7.7937" height="7.7937" fill="#3D4858"/>
<path d="M54.4936 18.097C54.4936 20.248 53.7999 22.0951 52.4126 23.6383C51.0409 25.1814 49.1237 25.953 46.6609 25.953C44.1825 25.953 42.2808 25.1814 40.9559 23.6383C39.631 22.0951 38.9685 20.2636 38.9685 18.1437C38.9685 15.9303 39.6699 14.0676 41.0728 12.5556C42.4757 11.0437 44.3695 10.2877 46.7544 10.2877C49.186 10.2877 51.0799 11.0592 52.436 12.6024C53.8077 14.13 54.4936 15.9615 54.4936 18.097ZM51.1033 18.1905C51.1033 16.5694 50.7292 15.3068 49.981 14.4027C49.2328 13.4987 48.1495 13.0466 46.731 13.0466C45.2191 13.0466 44.1123 13.5298 43.4109 14.4963C42.7095 15.4471 42.3588 16.6395 42.3588 18.0736C42.3588 19.4608 42.7017 20.6611 43.3875 21.6743C44.0734 22.6874 45.2191 23.194 46.8246 23.194C48.3054 23.194 49.3887 22.7342 50.0745 21.8145C50.7604 20.8793 51.1033 19.6713 51.1033 18.1905Z" fill="#3D4858"/>
<path d="M67.585 25.7192H63.1659V23.7552C62.8698 24.3631 62.4333 24.8853 61.8566 25.3217C61.2799 25.7426 60.5161 25.953 59.5652 25.953C58.178 25.953 57.0868 25.4776 56.2919 24.5268C55.4969 23.5759 55.0994 22.2822 55.0994 20.6455C55.0994 19.0712 55.4891 17.7306 56.2685 16.6239C57.0479 15.5172 58.2247 14.9639 59.799 14.9639C60.6564 14.9639 61.3578 15.1353 61.9033 15.4783C62.4489 15.8212 62.8698 16.2576 63.1659 16.7876V11.9243H61.0616V9.633H66.1821V23.4512H67.585V25.7192ZM63.1659 20.3883V20.1311C63.1659 19.2582 62.9321 18.5802 62.4645 18.097C62.0125 17.5982 61.4435 17.3488 60.7577 17.3488C60.0874 17.3488 59.4951 17.5982 58.9807 18.097C58.4819 18.5957 58.2325 19.3829 58.2325 20.4584C58.2325 21.4716 58.4663 22.2432 58.9339 22.7732C59.4016 23.3031 59.9549 23.5681 60.594 23.5681C61.389 23.5681 62.0125 23.233 62.4645 22.5627C62.9321 21.8925 63.1659 21.1677 63.1659 20.3883Z" fill="#3D4858"/>
<path d="M78.2774 22.3991C78.1995 23.3343 77.7397 24.1604 76.8979 24.8775C76.0562 25.5945 74.8794 25.953 73.3674 25.953C71.7931 25.953 70.4915 25.5088 69.4627 24.6203C68.4496 23.7318 67.943 22.4069 67.943 20.6455C67.943 19.0244 68.4028 17.6761 69.3225 16.6006C70.2577 15.5094 71.5592 14.9639 73.2271 14.9639C74.6923 14.9639 75.877 15.3847 76.781 16.2265C77.7007 17.0682 78.1683 18.1749 78.1839 19.5466C78.1839 20.061 78.1293 20.5676 78.0202 21.0663H71.0994C71.2709 22.7342 72.097 23.5681 73.5778 23.5681C74.3884 23.5681 74.9339 23.3733 75.2145 22.9836C75.5107 22.5939 75.6899 22.2432 75.7523 21.9314L78.2774 22.3991ZM75.0742 19.3128C75.1366 18.7828 75.0197 18.284 74.7235 17.8164C74.4429 17.3488 73.9441 17.1149 73.2271 17.1149C72.6036 17.1149 72.1204 17.3176 71.7775 17.7229C71.4346 18.1281 71.2163 18.6581 71.1228 19.3128H75.0742Z" fill="#3D4858"/>
<path d="M79.8766 15.9225C80.7963 15.5484 81.5601 15.299 82.168 15.1743C82.7915 15.034 83.5319 14.9639 84.3892 14.9639C85.5271 14.9639 86.5091 15.26 87.3352 15.8524C88.1613 16.4447 88.5744 17.341 88.5744 18.5412V23.1239C88.5744 23.6694 88.816 23.9422 89.2992 23.9422C89.4395 23.9422 89.5876 23.9188 89.7435 23.8721L89.7668 25.462C89.1589 25.7893 88.5277 25.953 87.873 25.953C86.4857 25.953 85.7141 25.2594 85.5583 23.8721V23.8487C85.2621 24.3787 84.8334 24.8619 84.2723 25.2983C83.7267 25.7348 83.0253 25.953 82.168 25.953C81.4042 25.953 80.6716 25.727 79.9702 25.2749C79.2687 24.8229 78.918 24.0435 78.918 22.9368C78.918 21.6431 79.4324 20.7858 80.4612 20.3649C81.5055 19.9441 82.6278 19.7336 83.8281 19.7336C84.4983 19.7336 85.075 19.7648 85.5583 19.8272V19.4764C85.5583 18.9309 85.4803 18.4009 85.3244 17.8865C85.1842 17.3721 84.6854 17.1149 83.8281 17.1149C83.5163 17.1149 83.2279 17.1383 82.963 17.1851C82.7136 17.2163 82.4642 17.2942 82.2148 17.4189L81.8173 18.9153L79.409 18.6581L79.8766 15.9225ZM85.5583 21.4171V21.2768C85.3089 21.2456 85.0517 21.2144 84.7867 21.1833C84.5373 21.1521 84.2879 21.1365 84.0385 21.1365C83.5085 21.1365 83.0409 21.2378 82.6356 21.4404C82.2303 21.6275 82.0277 22.0094 82.0277 22.5861C82.0277 22.929 82.1212 23.2174 82.3083 23.4512C82.4953 23.685 82.8149 23.8019 83.2669 23.8019C83.7969 23.8019 84.2879 23.6149 84.7399 23.2408C85.2075 22.8511 85.4803 22.2432 85.5583 21.4171Z" fill="#3D4858"/>
<path d="M101.407 20.4584C101.407 22.1263 100.862 23.459 99.7707 24.4566C98.6796 25.4542 97.2923 25.953 95.6088 25.953C93.9877 25.953 92.6628 25.4854 91.634 24.5501C90.6209 23.5993 90.1143 22.2744 90.1143 20.5753C90.1143 19.0322 90.5819 17.7073 91.5171 16.6006C92.4524 15.4939 93.8708 14.9405 95.7725 14.9405C97.6742 14.9405 99.0848 15.4939 100.004 16.6006C100.94 17.6917 101.407 18.9776 101.407 20.4584ZM98.2977 20.3649C98.2977 19.2894 98.0483 18.5022 97.5495 18.0034C97.0507 17.5046 96.4428 17.2552 95.7257 17.2552C94.9464 17.2552 94.3307 17.5358 93.8786 18.097C93.4422 18.6425 93.224 19.4141 93.224 20.4117C93.224 21.3157 93.4266 22.0795 93.8319 22.703C94.2527 23.3265 94.8762 23.6383 95.7024 23.6383C96.4817 23.6383 97.1052 23.3499 97.5728 22.7732C98.0561 22.1808 98.2977 21.3781 98.2977 20.3649Z" fill="#3D4858"/>
<path d="M113.237 25.7192H101.827V23.0537H103.464V13.1869H101.827V10.5215H108.725V13.1869H106.597V23.0537H110.572L111.039 20.1077L113.705 20.3415L113.237 25.7192Z" fill="#3D4858"/>
<path d="M115.075 15.9225C115.995 15.5484 116.759 15.299 117.367 15.1743C117.99 15.034 118.73 14.9639 119.588 14.9639C120.726 14.9639 121.708 15.26 122.534 15.8524C123.36 16.4447 123.773 17.341 123.773 18.5412V23.1239C123.773 23.6694 124.015 23.9422 124.498 23.9422C124.638 23.9422 124.786 23.9188 124.942 23.8721L124.965 25.462C124.358 25.7893 123.726 25.953 123.072 25.953C121.684 25.953 120.913 25.2594 120.757 23.8721V23.8487C120.461 24.3787 120.032 24.8619 119.471 25.2983C118.925 25.7348 118.224 25.953 117.367 25.953C116.603 25.953 115.87 25.727 115.169 25.2749C114.467 24.8229 114.117 24.0435 114.117 22.9368C114.117 21.6431 114.631 20.7858 115.66 20.3649C116.704 19.9441 117.826 19.7336 119.027 19.7336C119.697 19.7336 120.274 19.7648 120.757 19.8272V19.4764C120.757 18.9309 120.679 18.4009 120.523 17.8865C120.383 17.3721 119.884 17.1149 119.027 17.1149C118.715 17.1149 118.427 17.1383 118.162 17.1851C117.912 17.2163 117.663 17.2942 117.413 17.4189L117.016 18.9153L114.608 18.6581L115.075 15.9225ZM120.757 21.4171V21.2768C120.507 21.2456 120.25 21.2144 119.985 21.1833C119.736 21.1521 119.486 21.1365 119.237 21.1365C118.707 21.1365 118.239 21.2378 117.834 21.4404C117.429 21.6275 117.226 22.0094 117.226 22.5861C117.226 22.929 117.32 23.2174 117.507 23.4512C117.694 23.685 118.013 23.8019 118.465 23.8019C118.995 23.8019 119.486 23.6149 119.938 23.2408C120.406 22.8511 120.679 22.2432 120.757 21.4171Z" fill="#3D4858"/>
<path d="M137.237 20.2012C137.237 21.76 136.824 23.1083 135.998 24.2462C135.187 25.3841 133.987 25.953 132.397 25.953C130.792 25.953 129.662 25.3451 129.007 24.1293C128.976 24.3943 128.937 24.6592 128.89 24.9242C128.859 25.1892 128.82 25.4542 128.773 25.7192H125.757C125.866 25.1736 125.96 24.6281 126.038 24.0825C126.116 23.537 126.155 22.9992 126.155 22.4692V11.9243H124.752V9.633H129.171V17.1851C129.451 16.5772 129.872 16.055 130.433 15.6186C131.01 15.1821 131.774 14.9639 132.725 14.9639C134.05 14.9639 135.133 15.4237 135.975 16.3434C136.816 17.263 137.237 18.549 137.237 20.2012ZM134.104 20.4584C134.104 19.4453 133.886 18.6737 133.449 18.1437C133.013 17.6137 132.436 17.3488 131.719 17.3488C130.909 17.3488 130.277 17.6449 129.825 18.2372C129.389 18.8296 129.171 19.5154 129.171 20.2948V20.552C129.171 21.4093 129.381 22.1341 129.802 22.7264C130.238 23.3031 130.854 23.5915 131.649 23.5915C132.335 23.5915 132.912 23.3421 133.379 22.8433C133.863 22.3289 134.104 21.534 134.104 20.4584Z" fill="#3D4858"/>
<path d="M147.426 22.4926C147.426 23.6617 146.959 24.5345 146.023 25.1113C145.104 25.6724 143.904 25.953 142.423 25.953C141.659 25.953 140.887 25.8751 140.108 25.7192C139.344 25.5477 138.612 25.2827 137.91 24.9242L138.331 21.9782L140.669 22.2354V23.5447C140.95 23.6383 141.246 23.7006 141.558 23.7318C141.869 23.7474 142.103 23.7552 142.259 23.7552C142.836 23.7552 143.335 23.6617 143.755 23.4746C144.176 23.2876 144.387 23.007 144.387 22.6329C144.387 22.1808 144.067 21.8847 143.428 21.7444C142.789 21.6041 142.049 21.4638 141.207 21.3235C140.365 21.1833 139.625 20.8949 138.986 20.4584C138.347 20.022 138.027 19.2816 138.027 18.2372C138.027 16.9435 138.526 16.0784 139.523 15.6419C140.537 15.1899 141.581 14.9639 142.657 14.9639C144.059 14.9639 145.377 15.2834 146.608 15.9225L146.865 18.6113L144.527 18.8685L144.34 17.3955C143.826 17.2241 143.272 17.1383 142.68 17.1383C142.29 17.1383 141.955 17.2241 141.675 17.3955C141.41 17.5514 141.277 17.8008 141.277 18.1437C141.277 18.5957 141.581 18.8997 142.189 19.0556C142.812 19.1959 143.529 19.3361 144.34 19.4764C145.166 19.6167 145.883 19.9051 146.491 20.3415C147.115 20.7624 147.426 21.4794 147.426 22.4926Z" fill="#3D4858"/>
</svg>
