<svg width="40" height="40" viewBox="0 0 40 40" fill="none" xmlns="http://www.w3.org/2000/svg">
<foreignObject x="-4" y="-4" width="48" height="48"><div xmlns="http://www.w3.org/1999/xhtml" style="backdrop-filter:blur(2px);clip-path:url(#bgblur_0_221_3035_clip_path);height:100%;width:100%"></div></foreignObject><g data-figma-bg-blur-radius="4">
<g clip-path="url(#clip1_221_3035)">
<mask id="mask0_221_3035" style="mask-type:luminance" maskUnits="userSpaceOnUse" x="0" y="0" width="40" height="40">
<path d="M40 0H0V40H40V0Z" fill="white"/>
</mask>
<g mask="url(#mask0_221_3035)">
<path d="M40 0H0V40H40V0Z" fill="#171717"/>
<path d="M40 0H0V40H40V0Z" fill="url(#paint0_linear_221_3035)"/>
<path d="M22.3345 7.27197H12.4111C11.448 7.27197 10.66 8.05298 10.66 9.00762V30.9921C10.66 31.9467 11.448 32.7277 12.4111 32.7277H27.588C28.5512 32.7277 29.3392 31.9467 29.3392 30.9921V14.2144L25.2531 11.3218L22.3345 7.27197Z" fill="url(#paint1_linear_221_3035)"/>
<path d="M22.8474 13.707L29.34 20.1404V14.2147L22.8474 13.707Z" fill="url(#paint2_linear_221_3035)"/>
<g filter="url(#filter1_dddd_221_3035)">
<path d="M15.3301 25.2069C15.3301 25.5264 15.5891 25.7854 15.9086 25.7854H24.0912C24.4107 25.7854 24.6697 25.5264 24.6697 25.2069C24.6697 24.8874 24.4107 24.6283 24.0912 24.6283H15.9086C15.5891 24.6283 15.3301 24.8874 15.3301 25.2069ZM15.3301 27.521C15.3301 27.8406 15.5891 28.0995 15.9086 28.0995H21.7562C22.0758 28.0995 22.3348 27.8406 22.3348 27.521C22.3348 27.2015 22.0758 26.9425 21.7562 26.9425H15.9086C15.5891 26.9425 15.3301 27.2015 15.3301 27.521ZM15.9086 20C15.5891 20 15.3301 20.259 15.3301 20.5786C15.3301 20.8981 15.5891 21.157 15.9086 21.157H24.0912C24.4107 21.157 24.6697 20.8981 24.6697 20.5786C24.6697 20.259 24.4107 20 24.0912 20H15.9086ZM15.3301 22.8927C15.3301 23.2122 15.5891 23.4712 15.9086 23.4712H24.0912C24.4107 23.4712 24.6697 23.2122 24.6697 22.8927C24.6697 22.5732 24.4107 22.3142 24.0912 22.3142H15.9086C15.5891 22.3142 15.3301 22.5732 15.3301 22.8927Z" fill="url(#paint3_linear_221_3035)"/>
</g>
<path d="M22.335 7.27197V12.4788C22.335 13.4378 23.1186 14.2144 24.0862 14.2144H29.3397L22.335 7.27197Z" fill="#A1C2FA"/>
<path d="M12.4111 7.27197C11.448 7.27197 10.66 8.05298 10.66 9.00762V9.15226C10.66 8.19762 11.448 7.41661 12.4111 7.41661H22.3345V7.27197H12.4111Z" fill="white" fill-opacity="0.2"/>
<path d="M27.588 32.5825H12.4111C11.448 32.5825 10.66 31.8015 10.66 30.8469V30.9916C10.66 31.9461 11.448 32.7272 12.4111 32.7272H27.588C28.5512 32.7272 29.3392 31.9461 29.3392 30.9916V30.8469C29.3392 31.8015 28.5512 32.5825 27.588 32.5825Z" fill="#1A237E" fill-opacity="0.2"/>
<path d="M24.0859 14.2139C23.1184 14.2139 22.3348 13.4372 22.3348 12.4783V12.6229C22.3348 13.5818 23.1184 14.3585 24.0859 14.3585H29.3395V14.2139H24.0859Z" fill="#1A237E" fill-opacity="0.1"/>
</g>
</g>
<mask id="mask1_221_3035" style="mask-type:alpha" maskUnits="userSpaceOnUse" x="0" y="0" width="40" height="40">
<rect width="40" height="40" fill="white"/>
</mask>
<g mask="url(#mask1_221_3035)">
<rect opacity="0.3" width="40" height="40" rx="12" fill="url(#paint4_linear_221_3035)"/>
</g>
</g>
<defs>
<clipPath id="bgblur_0_221_3035_clip_path" transform="translate(4 4)"><rect width="40" height="40" rx="12"/>
</clipPath><filter id="filter1_dddd_221_3035" x="12.1301" y="19.2" width="15.7396" height="20.8996" filterUnits="userSpaceOnUse" color-interpolation-filters="sRGB">
<feFlood flood-opacity="0" result="BackgroundImageFix"/>
<feColorMatrix in="SourceAlpha" type="matrix" values="0 0 0 0 0 0 0 0 0 0 0 0 0 0 0 0 0 0 127 0" result="hardAlpha"/>
<feOffset dy="0.8"/>
<feGaussianBlur stdDeviation="0.8"/>
<feColorMatrix type="matrix" values="0 0 0 0 0 0 0 0 0 0 0 0 0 0 0 0 0 0 0.1 0"/>
<feBlend mode="normal" in2="BackgroundImageFix" result="effect1_dropShadow_221_3035"/>
<feColorMatrix in="SourceAlpha" type="matrix" values="0 0 0 0 0 0 0 0 0 0 0 0 0 0 0 0 0 0 127 0" result="hardAlpha"/>
<feOffset dy="2.4"/>
<feGaussianBlur stdDeviation="1.2"/>
<feColorMatrix type="matrix" values="0 0 0 0 0 0 0 0 0 0 0 0 0 0 0 0 0 0 0.09 0"/>
<feBlend mode="normal" in2="effect1_dropShadow_221_3035" result="effect2_dropShadow_221_3035"/>
<feColorMatrix in="SourceAlpha" type="matrix" values="0 0 0 0 0 0 0 0 0 0 0 0 0 0 0 0 0 0 127 0" result="hardAlpha"/>
<feOffset dy="4.8"/>
<feGaussianBlur stdDeviation="1.6"/>
<feColorMatrix type="matrix" values="0 0 0 0 0 0 0 0 0 0 0 0 0 0 0 0 0 0 0.05 0"/>
<feBlend mode="normal" in2="effect2_dropShadow_221_3035" result="effect3_dropShadow_221_3035"/>
<feColorMatrix in="SourceAlpha" type="matrix" values="0 0 0 0 0 0 0 0 0 0 0 0 0 0 0 0 0 0 127 0" result="hardAlpha"/>
<feOffset dy="8.8"/>
<feGaussianBlur stdDeviation="1.6"/>
<feColorMatrix type="matrix" values="0 0 0 0 0 0 0 0 0 0 0 0 0 0 0 0 0 0 0.01 0"/>
<feBlend mode="normal" in2="effect3_dropShadow_221_3035" result="effect4_dropShadow_221_3035"/>
<feBlend mode="normal" in="SourceGraphic" in2="effect4_dropShadow_221_3035" result="shape"/>
</filter>
<linearGradient id="paint0_linear_221_3035" x1="20" y1="5.2" x2="20" y2="40" gradientUnits="userSpaceOnUse">
<stop stop-color="white"/>
<stop offset="1" stop-color="#D9D9D9"/>
</linearGradient>
<linearGradient id="paint1_linear_221_3035" x1="19.9996" y1="10.908" x2="19.9996" y2="32.7277" gradientUnits="userSpaceOnUse">
<stop stop-color="#4285F4"/>
<stop offset="1" stop-color="#1F6CED"/>
</linearGradient>
<linearGradient id="paint2_linear_221_3035" x1="347.507" y1="68.9445" x2="347.507" y2="657.132" gradientUnits="userSpaceOnUse">
<stop stop-color="#1A237E" stop-opacity="0.2"/>
<stop offset="1" stop-color="#1A237E" stop-opacity="0.02"/>
</linearGradient>
<linearGradient id="paint3_linear_221_3035" x1="19.9999" y1="20" x2="19.9999" y2="28.0995" gradientUnits="userSpaceOnUse">
<stop stop-color="#F1F1F1"/>
<stop offset="1" stop-color="#F1F1F1" stop-opacity="0.5"/>
</linearGradient>
<linearGradient id="paint4_linear_221_3035" x1="0" y1="0" x2="40" y2="40" gradientUnits="userSpaceOnUse">
<stop stop-color="white"/>
<stop offset="0.42" stop-color="white" stop-opacity="0.35"/>
<stop offset="0.62" stop-color="white" stop-opacity="0.35"/>
<stop offset="1" stop-color="white"/>
</linearGradient>
<clipPath id="clip1_221_3035">
<rect width="40" height="40" rx="12" fill="white"/>
</clipPath>
</defs>
</svg>
