<svg width="40" height="40" viewBox="0 0 40 40" fill="none" xmlns="http://www.w3.org/2000/svg">
<foreignObject x="-4" y="-4" width="48" height="48"><div xmlns="http://www.w3.org/1999/xhtml" style="backdrop-filter:blur(2px);clip-path:url(#bgblur_0_221_3143_clip_path);height:100%;width:100%"></div></foreignObject><g data-figma-bg-blur-radius="4">
<g clip-path="url(#clip1_221_3143)">
<mask id="mask0_221_3143" style="mask-type:luminance" maskUnits="userSpaceOnUse" x="0" y="0" width="40" height="40">
<path d="M40 0H0V40H40V0Z" fill="white"/>
</mask>
<g mask="url(#mask0_221_3143)">
<path d="M40 0H0V40H40V0Z" fill="url(#paint0_radial_221_3143)"/>
<g filter="url(#filter1_ddddi_221_3143)">
<path d="M8.94373 22.6119C8.89333 22.3969 9.14949 22.2615 9.30557 22.4176L17.5817 30.6938C17.7379 30.8499 17.6024 31.1061 17.3875 31.0556C13.211 30.0759 9.92349 26.7884 8.94373 22.6119ZM8.66645 19.2949C8.66245 19.3591 8.68653 19.4219 8.73205 19.4673L20.532 31.2673C20.5776 31.3128 20.6403 31.3371 20.7044 31.333C21.2415 31.2995 21.7684 31.2287 22.2826 31.1231C22.4559 31.0875 22.5161 30.8746 22.391 30.7495L9.24989 17.6084C9.12477 17.4833 8.91189 17.5435 8.87629 17.7168C8.77069 18.231 8.69989 18.7579 8.66645 19.2949ZM9.62045 15.3999C9.58277 15.4847 9.60197 15.5837 9.66757 15.6493L24.3501 30.3319C24.4157 30.3975 24.5147 30.4167 24.5994 30.3789C25.0043 30.1986 25.3966 29.9952 25.7748 29.7706C25.9 29.6962 25.9192 29.5243 25.8164 29.4213L10.578 14.1831C10.4752 14.0801 10.3032 14.0995 10.2288 14.2246C10.0041 14.6027 9.80077 14.9951 9.62045 15.3999ZM11.5353 12.7635C11.4514 12.6796 11.4462 12.5451 11.5252 12.4566C13.6027 10.1308 16.6246 8.66675 19.9884 8.66675C26.2536 8.66675 31.3327 13.7457 31.3327 20.011C31.3327 23.3748 29.8685 26.3967 27.5428 28.4741C27.4544 28.5531 27.3198 28.548 27.2359 28.4641L11.5353 12.7635Z" fill="url(#paint1_linear_221_3143)"/>
</g>
</g>
</g>
<mask id="mask1_221_3143" style="mask-type:alpha" maskUnits="userSpaceOnUse" x="0" y="0" width="40" height="40">
<rect width="40" height="40" fill="white"/>
</mask>
<g mask="url(#mask1_221_3143)">
<rect opacity="0.3" width="40" height="40" rx="12" fill="url(#paint2_linear_221_3143)"/>
</g>
</g>
<defs>
<clipPath id="bgblur_0_221_3143_clip_path" transform="translate(4 4)"><rect width="40" height="40" rx="12"/>
</clipPath><filter id="filter1_ddddi_221_3143" x="6.26602" y="8.66675" width="27.4667" height="31.4667" filterUnits="userSpaceOnUse" color-interpolation-filters="sRGB">
<feFlood flood-opacity="0" result="BackgroundImageFix"/>
<feColorMatrix in="SourceAlpha" type="matrix" values="0 0 0 0 0 0 0 0 0 0 0 0 0 0 0 0 0 0 127 0" result="hardAlpha"/>
<feOffset dy="0.8"/>
<feGaussianBlur stdDeviation="0.4"/>
<feColorMatrix type="matrix" values="0 0 0 0 0 0 0 0 0 0 0 0 0 0 0 0 0 0 0.23 0"/>
<feBlend mode="normal" in2="BackgroundImageFix" result="effect1_dropShadow_221_3143"/>
<feColorMatrix in="SourceAlpha" type="matrix" values="0 0 0 0 0 0 0 0 0 0 0 0 0 0 0 0 0 0 127 0" result="hardAlpha"/>
<feOffset dy="1.6"/>
<feGaussianBlur stdDeviation="0.8"/>
<feColorMatrix type="matrix" values="0 0 0 0 0 0 0 0 0 0 0 0 0 0 0 0 0 0 0.2 0"/>
<feBlend mode="normal" in2="effect1_dropShadow_221_3143" result="effect2_dropShadow_221_3143"/>
<feColorMatrix in="SourceAlpha" type="matrix" values="0 0 0 0 0 0 0 0 0 0 0 0 0 0 0 0 0 0 127 0" result="hardAlpha"/>
<feOffset dy="4"/>
<feGaussianBlur stdDeviation="1.2"/>
<feColorMatrix type="matrix" values="0 0 0 0 0 0 0 0 0 0 0 0 0 0 0 0 0 0 0.12 0"/>
<feBlend mode="normal" in2="effect2_dropShadow_221_3143" result="effect3_dropShadow_221_3143"/>
<feColorMatrix in="SourceAlpha" type="matrix" values="0 0 0 0 0 0 0 0 0 0 0 0 0 0 0 0 0 0 127 0" result="hardAlpha"/>
<feOffset dy="6.4"/>
<feGaussianBlur stdDeviation="1.2"/>
<feColorMatrix type="matrix" values="0 0 0 0 0 0 0 0 0 0 0 0 0 0 0 0 0 0 0.03 0"/>
<feBlend mode="normal" in2="effect3_dropShadow_221_3143" result="effect4_dropShadow_221_3143"/>
<feBlend mode="normal" in="SourceGraphic" in2="effect4_dropShadow_221_3143" result="shape"/>
<feColorMatrix in="SourceAlpha" type="matrix" values="0 0 0 0 0 0 0 0 0 0 0 0 0 0 0 0 0 0 127 0" result="hardAlpha"/>
<feOffset/>
<feGaussianBlur stdDeviation="0.8"/>
<feComposite in2="hardAlpha" operator="arithmetic" k2="-1" k3="1"/>
<feColorMatrix type="matrix" values="0 0 0 0 1 0 0 0 0 1 0 0 0 0 1 0 0 0 1 0"/>
<feBlend mode="normal" in2="shape" result="effect5_innerShadow_221_3143"/>
</filter>
<radialGradient id="paint0_radial_221_3143" cx="0" cy="0" r="1" gradientUnits="userSpaceOnUse" gradientTransform="translate(20.2664 40) rotate(-90) scale(40 134.062)">
<stop stop-color="#1D1D1D"/>
<stop offset="1" stop-color="#4F4D4D"/>
</radialGradient>
<linearGradient id="paint1_linear_221_3143" x1="19.9993" y1="8.66675" x2="19.9993" y2="31.3334" gradientUnits="userSpaceOnUse">
<stop stop-color="white"/>
<stop offset="1" stop-color="white" stop-opacity="0.5"/>
</linearGradient>
<linearGradient id="paint2_linear_221_3143" x1="0" y1="0" x2="40" y2="40" gradientUnits="userSpaceOnUse">
<stop stop-color="white"/>
<stop offset="0.42" stop-color="white" stop-opacity="0.35"/>
<stop offset="0.62" stop-color="white" stop-opacity="0.35"/>
<stop offset="1" stop-color="white"/>
</linearGradient>
<clipPath id="clip1_221_3143">
<rect width="40" height="40" rx="12" fill="white"/>
</clipPath>
</defs>
</svg>
