<svg width="40" height="40" viewBox="0 0 40 40" fill="none" xmlns="http://www.w3.org/2000/svg">
<g clip-path="url(#clip0_221_3055)">
<path d="M40 0H0V40H40V0Z" fill="#171717"/>
<path d="M40 0H0V40H40V0Z" fill="url(#paint0_linear_221_3055)"/>
<g clip-path="url(#clip1_221_3055)">
<mask id="mask0_221_3055" style="mask-type:luminance" maskUnits="userSpaceOnUse" x="9" y="9" width="22" height="22">
<path d="M31 9H9V31H31V9Z" fill="white"/>
</mask>
<g mask="url(#mask0_221_3055)">
<mask id="mask1_221_3055" style="mask-type:luminance" maskUnits="userSpaceOnUse" x="9" y="9" width="22" height="22">
<path d="M31 9H9V31H31V9Z" fill="white"/>
</mask>
<g mask="url(#mask1_221_3055)">
<path d="M30.7038 31C30.7038 30.859 30.7391 30.7532 30.7391 30.6827C30.7391 30.0833 30.7391 29.4487 30.7391 28.8493C30.7391 22.3622 30.7391 15.8397 30.7391 9.35256C30.7391 9 30.7391 9 30.3865 9C27.7776 9 25.1685 9 22.5596 9C22.3128 9 22.2423 9.07052 22.2423 9.31732C22.2423 10.5513 22.2423 11.75 22.2423 12.984C22.2423 13.2308 22.348 13.3013 22.5596 13.3013C23.7583 13.3013 24.957 13.3013 26.1205 13.3013C26.473 13.3013 26.473 13.3013 26.473 13.6538C26.473 16.0513 26.473 18.4487 26.473 20.8461C26.473 23.5256 26.473 26.1698 26.473 28.8493C26.473 29.0256 26.4731 29.1667 26.6846 29.2724C27.7423 29.7307 28.8 30.2243 29.8224 30.6827C30.1045 30.7532 30.3865 30.859 30.7038 31ZM24.3929 23.1378C24.3929 20.6346 24.3929 18.1314 24.3929 15.6282C24.3929 15.3109 24.3929 15.3109 24.0756 15.3109C21.4313 15.3109 18.8224 15.3109 16.1782 15.3109C15.9314 15.3109 15.8608 15.3815 15.8608 15.6282C15.8608 16.8622 15.8608 18.0609 15.8608 19.2949C15.8608 19.5417 15.9666 19.6122 16.1782 19.6122C17.3416 19.6122 18.5051 19.6122 19.6685 19.6122C20.1268 19.6122 20.1269 19.5417 20.1269 20.0705C20.1269 22.9968 20.1269 25.8878 20.1269 28.8141C20.1269 29.0609 20.1974 29.202 20.4441 29.2724C20.973 29.484 21.4666 29.7308 21.9955 29.9776C22.7359 30.2949 23.441 30.6122 24.1814 30.9648C24.3577 31.0352 24.4281 31 24.4281 30.8237C24.4281 30.7532 24.4281 30.6827 24.4281 30.6122C24.3929 28.0737 24.3929 25.6058 24.3929 23.1378ZM18.0468 26.3462C18.0468 24.9007 18.0468 23.4199 18.0468 21.9743C18.0468 21.7628 17.9762 21.6571 17.7295 21.6571C15.1205 21.6571 12.4762 21.6571 9.86726 21.6571C9.54995 21.6571 9.54999 21.6571 9.54999 21.9743C9.54999 23.8782 9.54999 25.8173 9.54999 27.7211C9.54999 27.9679 9.62052 28.0738 9.83205 28.1443C10.6077 28.391 11.3481 28.673 12.1237 28.9551C13.9923 29.5897 15.8608 30.2596 17.7295 30.8943C18.0467 31 18.0468 31 18.0468 30.6474C18.0468 29.2372 18.0468 27.7917 18.0468 26.3462Z" fill="#03273D"/>
</g>
</g>
</g>
</g>
<defs>
<linearGradient id="paint0_linear_221_3055" x1="20" y1="5.2" x2="20" y2="40" gradientUnits="userSpaceOnUse">
<stop stop-color="white"/>
<stop offset="1" stop-color="#D9D9D9"/>
</linearGradient>
<clipPath id="clip0_221_3055">
<rect width="40" height="40" rx="12" fill="white"/>
</clipPath>
<clipPath id="clip1_221_3055">
<rect width="22" height="22" fill="white" transform="translate(9 9)"/>
</clipPath>
</defs>
</svg>
