<svg width="40" height="40" viewBox="0 0 40 40" fill="none" xmlns="http://www.w3.org/2000/svg">
<g clip-path="url(#clip0_221_3193)">
<path d="M40 0H0V40H40V0Z" fill="#171717"/>
<path d="M40 0H0V40H40V0Z" fill="url(#paint0_linear_221_3193)"/>
<g clip-path="url(#clip1_221_3193)">
<mask id="mask0_221_3193" style="mask-type:luminance" maskUnits="userSpaceOnUse" x="9" y="9" width="22" height="22">
<path d="M30.5303 9.5H9.54395V30.3108H30.5303V9.5Z" fill="white"/>
</mask>
<g mask="url(#mask0_221_3193)">
<mask id="mask1_221_3193" style="mask-type:luminance" maskUnits="userSpaceOnUse" x="9" y="9" width="22" height="22">
<path d="M30.5303 9.5H9.54395V30.3108H30.5303V9.5Z" fill="white"/>
</mask>
<g mask="url(#mask1_221_3193)">
<path d="M25.4926 14.4355H14.585V25.1214H25.4926V14.4355Z" fill="white"/>
<path d="M25.4932 29.9301L30.4015 25.1216H25.4932V29.9301Z" fill="#EA4335"/>
<path d="M30.4015 14.4355H25.4932V25.1214H30.4015V14.4355Z" fill="#FBBC04"/>
<path d="M25.4926 25.1216H14.585V29.9301H25.4926V25.1216Z" fill="#34A853"/>
<path d="M9.67578 25.1216V28.3275C9.67575 28.538 9.71805 28.7464 9.80027 28.9409C9.88249 29.1353 10.003 29.3121 10.155 29.4609C10.3069 29.6097 10.4873 29.7278 10.6858 29.8083C10.8843 29.8888 11.0971 29.9302 11.312 29.9301H14.5844V25.1216H9.67578Z" fill="#188038"/>
<path d="M30.4015 14.4355V11.2299C30.4016 11.0194 30.3593 10.8109 30.2771 10.6165C30.195 10.422 30.0745 10.2452 29.9226 10.0964C29.7706 9.94753 29.5902 9.82945 29.3917 9.74891C29.1932 9.66836 28.9804 9.62692 28.7656 9.62695H25.4932V14.4355H30.4015Z" fill="#1967D2"/>
<path d="M25.4921 9.62695H11.312C11.0971 9.62689 10.8843 9.6683 10.6858 9.74883C10.4872 9.82937 10.3068 9.94744 10.1549 10.0963C10.0029 10.2452 9.8824 10.4219 9.80019 10.6164C9.71799 10.8109 9.67571 11.0194 9.67578 11.2299V25.1216H14.5842V14.4355H25.4918L25.4921 9.62695ZM16.8217 22.7253C16.4139 22.4556 16.1318 22.0614 15.9776 21.5406L16.924 21.1587C17.01 21.4791 17.16 21.7276 17.374 21.904C17.6949 22.1688 17.8457 22.1673 18.1483 22.1673C18.4578 22.1673 18.7236 22.0751 18.9459 21.8909C19.2793 21.6145 19.2801 21.4713 19.2801 21.1868C19.2831 21.0492 19.2527 20.9128 19.1916 20.7888C19.1304 20.6648 19.0402 20.5568 18.9283 20.4734C18.6939 20.2889 18.3993 20.1971 18.0475 20.1971H17.5007V19.2794H17.9915C18.2941 19.2794 18.5492 19.1992 18.7566 19.039C19.0677 18.7987 19.0674 18.6596 19.0674 18.3805C19.0674 18.1322 18.9747 17.9341 18.7892 17.7861C18.511 17.564 18.3693 17.563 18.0843 17.563C17.8062 17.5626 17.5853 17.6352 17.4216 17.7807C17.176 17.999 17.1351 18.1109 17.0644 18.3165L16.1276 17.9345C16.2517 17.5899 16.4794 17.2853 16.8134 17.0222C17.1473 16.759 17.5742 16.6267 18.0923 16.6267C18.4757 16.6264 18.8202 16.699 19.1257 16.8445C19.584 17.0628 19.671 17.1917 19.8443 17.4483C20.0176 17.7049 20.1034 17.9947 20.1034 18.3152C20.1034 18.6421 20.0229 18.9191 19.8619 19.1461C19.6205 19.4867 19.5034 19.5468 19.269 19.6684V19.7232C19.5718 19.8455 19.8349 20.0463 20.0298 20.3042C20.2278 20.5644 20.3268 20.876 20.327 21.2391C20.3272 21.7838 20.2329 21.9271 20.0449 22.2116C19.8567 22.4962 19.5962 22.7205 19.2664 22.8835C18.9351 23.0464 18.5628 23.1291 18.1496 23.1291C17.6711 23.1304 17.2292 22.995 16.8217 22.7253ZM22.6342 18.1251L21.5953 18.8611L21.0759 18.0891L22.9399 16.7722H23.6543V22.9847H22.6344L22.6342 18.1251Z" fill="#4285F4"/>
</g>
</g>
</g>
</g>
<defs>
<linearGradient id="paint0_linear_221_3193" x1="20" y1="5.2" x2="20" y2="40" gradientUnits="userSpaceOnUse">
<stop stop-color="white"/>
<stop offset="1" stop-color="#D9D9D9"/>
</linearGradient>
<clipPath id="clip0_221_3193">
<rect width="40" height="40" rx="12" fill="white"/>
</clipPath>
<clipPath id="clip1_221_3193">
<rect width="22" height="21" fill="white" transform="translate(9 9.5)"/>
</clipPath>
</defs>
</svg>
