<svg width="40" height="40" viewBox="0 0 40 40" fill="none" xmlns="http://www.w3.org/2000/svg">
<foreignObject x="-4" y="-4" width="48" height="48"><div xmlns="http://www.w3.org/1999/xhtml" style="backdrop-filter:blur(2px);clip-path:url(#bgblur_0_221_3086_clip_path);height:100%;width:100%"></div></foreignObject><g data-figma-bg-blur-radius="4">
<g clip-path="url(#clip1_221_3086)">
<path d="M40 0H0V39.9989H40V0Z" fill="#171717"/>
<path d="M40 0H0V39.9989H40V0Z" fill="url(#paint0_linear_221_3086)"/>
<path fill-rule="evenodd" clip-rule="evenodd" d="M13.0523 23.1574C13.0523 24.5526 11.9214 25.6836 10.5262 25.6836C9.13096 25.6836 8 24.5526 8 23.1574C8 21.7623 9.13096 20.6313 10.5262 20.6313H13.0523V23.1574Z" fill="#E01E5A"/>
<path fill-rule="evenodd" clip-rule="evenodd" d="M14.3164 23.1574C14.3164 21.7623 15.4474 20.6313 16.8426 20.6313C18.2378 20.6313 19.3687 21.7623 19.3687 23.1574V29.4729C19.3687 30.868 18.2378 31.999 16.8426 31.999C15.4474 31.999 14.3164 30.868 14.3164 29.4729V23.1574Z" fill="#E01E5A"/>
<path fill-rule="evenodd" clip-rule="evenodd" d="M16.8426 13.0523C15.4474 13.0523 14.3164 11.9214 14.3164 10.5262C14.3164 9.13096 15.4474 8 16.8426 8C18.2378 8 19.3687 9.13096 19.3687 10.5262V13.0523H16.8426Z" fill="#36C5F0"/>
<path fill-rule="evenodd" clip-rule="evenodd" d="M16.8415 14.3157C18.2367 14.3157 19.3677 15.4466 19.3677 16.8418C19.3677 18.237 18.2367 19.368 16.8415 19.368H10.5262C9.13096 19.368 8 18.237 8 16.8418C8 15.4466 9.13096 14.3157 10.5262 14.3157H16.8415Z" fill="#36C5F0"/>
<path fill-rule="evenodd" clip-rule="evenodd" d="M26.9474 16.8418C26.9474 15.4466 28.0784 14.3157 29.4736 14.3157C30.8688 14.3157 31.9998 15.4466 31.9998 16.8418C31.9998 18.237 30.8688 19.368 29.4736 19.368H26.9474V16.8418Z" fill="#2EB67D"/>
<g filter="url(#filter1_i_221_3086)">
<path fill-rule="evenodd" clip-rule="evenodd" d="M25.6834 16.8415C25.6834 18.2367 24.5524 19.3677 23.1572 19.3677C21.762 19.3677 20.631 18.2367 20.631 16.8415V10.5262C20.631 9.13096 21.762 8 23.1572 8C24.5524 8 25.6834 9.13096 25.6834 10.5262V16.8415Z" fill="url(#paint1_linear_221_3086)"/>
</g>
<path fill-rule="evenodd" clip-rule="evenodd" d="M23.1569 26.946C24.5521 26.946 25.6831 28.0771 25.6831 29.4722C25.6831 30.8674 24.5521 31.9984 23.1569 31.9984C21.7618 31.9984 20.6309 30.8674 20.6309 29.4722V26.946H23.1569Z" fill="#ECB22E"/>
<path fill-rule="evenodd" clip-rule="evenodd" d="M23.1572 25.6836C21.762 25.6836 20.631 24.5526 20.631 23.1574C20.631 21.7623 21.762 20.6313 23.1572 20.6313H29.4726C30.8678 20.6313 31.9987 21.7623 31.9987 23.1574C31.9987 24.5526 30.8678 25.6836 29.4726 25.6836H23.1572Z" fill="url(#paint2_linear_221_3086)"/>
</g>
<mask id="mask0_221_3086" style="mask-type:alpha" maskUnits="userSpaceOnUse" x="0" y="0" width="40" height="40">
<rect width="40" height="40" fill="white"/>
</mask>
<g mask="url(#mask0_221_3086)">
<rect opacity="0.3" width="40" height="40" rx="12" fill="url(#paint3_linear_221_3086)"/>
</g>
</g>
<defs>
<clipPath id="bgblur_0_221_3086_clip_path" transform="translate(4 4)"><rect width="40" height="40" rx="12"/>
</clipPath><filter id="filter1_i_221_3086" x="20.631" y="7.1352" width="5.05231" height="12.2325" filterUnits="userSpaceOnUse" color-interpolation-filters="sRGB">
<feFlood flood-opacity="0" result="BackgroundImageFix"/>
<feBlend mode="normal" in="SourceGraphic" in2="BackgroundImageFix" result="shape"/>
<feColorMatrix in="SourceAlpha" type="matrix" values="0 0 0 0 0 0 0 0 0 0 0 0 0 0 0 0 0 0 127 0" result="hardAlpha"/>
<feOffset dy="-0.8648"/>
<feGaussianBlur stdDeviation="0.4324"/>
<feComposite in2="hardAlpha" operator="arithmetic" k2="-1" k3="1"/>
<feColorMatrix type="matrix" values="0 0 0 0 0 0 0 0 0 0 0 0 0 0 0 0 0 0 0.05 0"/>
<feBlend mode="normal" in2="shape" result="effect1_innerShadow_221_3086"/>
</filter>
<linearGradient id="paint0_linear_221_3086" x1="20" y1="5.19986" x2="20" y2="39.999" gradientUnits="userSpaceOnUse">
<stop stop-color="white"/>
<stop offset="1" stop-color="#D9D9D9"/>
</linearGradient>
<linearGradient id="paint1_linear_221_3086" x1="23.1572" y1="8" x2="23.1572" y2="19.3677" gradientUnits="userSpaceOnUse">
<stop stop-color="#37D492"/>
<stop offset="1" stop-color="#2EB67D"/>
</linearGradient>
<linearGradient id="paint2_linear_221_3086" x1="26.3149" y1="20.6313" x2="26.3149" y2="25.6836" gradientUnits="userSpaceOnUse">
<stop stop-color="#FFCC58"/>
<stop offset="1" stop-color="#ECAA2E"/>
</linearGradient>
<linearGradient id="paint3_linear_221_3086" x1="0" y1="0" x2="40" y2="40" gradientUnits="userSpaceOnUse">
<stop stop-color="white"/>
<stop offset="0.42" stop-color="white" stop-opacity="0.35"/>
<stop offset="0.62" stop-color="white" stop-opacity="0.35"/>
<stop offset="1" stop-color="white"/>
</linearGradient>
<clipPath id="clip1_221_3086">
<rect width="40" height="40" rx="12" fill="white"/>
</clipPath>
</defs>
</svg>
