<svg width="40" height="40" viewBox="0 0 40 40" fill="none" xmlns="http://www.w3.org/2000/svg">
<g clip-path="url(#clip0_221_3213)">
<path d="M40 0H0V40H40V0Z" fill="#171717"/>
<path d="M40 0H0V40H40V0Z" fill="url(#paint0_linear_221_3213)"/>
<g clip-path="url(#clip1_221_3213)">
<mask id="mask0_221_3213" style="mask-type:luminance" maskUnits="userSpaceOnUse" x="9" y="9" width="22" height="22">
<path d="M30.7737 9.00024H9.23511V30.5388H30.7737V9.00024Z" fill="white"/>
</mask>
<g mask="url(#mask0_221_3213)">
<mask id="mask1_221_3213" style="mask-type:luminance" maskUnits="userSpaceOnUse" x="9" y="9" width="22" height="22">
<path d="M30.7737 9.00024H9.23511V30.5388H30.7737V9.00024Z" fill="white"/>
</mask>
<g mask="url(#mask1_221_3213)">
<mask id="mask2_221_3213" style="mask-type:luminance" maskUnits="userSpaceOnUse" x="9" y="9" width="22" height="22">
<path d="M30.7737 9.00049H9.23511V30.5391H30.7737V9.00049Z" fill="white"/>
</mask>
<g mask="url(#mask2_221_3213)">
<path fill-rule="evenodd" clip-rule="evenodd" d="M24.7062 16.2614H28.1207V17.9457H24.7058L24.7062 16.2614ZM24.7062 13.7363H28.1207V15.4199H24.7058L24.7062 13.7363ZM24.7062 18.8435H28.1207V20.5275H24.7058L24.7062 18.8435ZM24.7062 21.3693H28.1207V23.0532H24.7058L24.7062 21.3693Z" fill="#02723B"/>
<path fill-rule="evenodd" clip-rule="evenodd" d="M24.7079 23.9515H28.1225V25.6351H24.7076L24.7079 23.9515ZM30.0818 11.4343H21.8527V9.1333L9.3689 11.322V28.2728L21.8527 30.4059V27.8263H30.0818C30.4174 27.8263 30.6414 27.5459 30.6414 27.2681V11.9958C30.6414 11.7154 30.4174 11.4376 30.0815 11.4376L30.0818 11.4343ZM16.4221 23.5584L15.2468 20.4737H15.1936C15.1936 20.5272 14.018 23.3922 14.018 23.3922L12.4507 23.2802L14.2976 19.6319L12.6183 15.9836L14.186 15.8716L15.2497 18.7341H15.3027C15.3027 18.681 16.4781 15.7593 16.4781 15.7593L18.1013 15.6473L16.1424 19.6323L18.1577 23.6176L16.4224 23.5641L16.4221 23.5584ZM29.9131 27.2067H21.8527V25.638H23.8119V23.954H21.8527V23.1096H23.8119V21.4261H21.8527V20.5836H23.8119V18.8999H21.8527V18.0575H23.8119V16.3738H21.8527V15.532H23.8119V13.8477H21.8527V12.1641H29.9138V27.2063L29.9131 27.2067Z" fill="#02723B"/>
<path fill-rule="evenodd" clip-rule="evenodd" d="M24.573 16.1284H27.9876V17.8124H24.5734L24.573 16.1284ZM24.573 13.603H27.9876V15.287H24.5734L24.573 13.603ZM24.573 18.7105H27.9876V20.3942H24.5734L24.573 18.7105ZM24.573 21.2363H27.9876V22.9202H24.5734L24.573 21.2363Z" fill="#02723B"/>
<path fill-rule="evenodd" clip-rule="evenodd" d="M24.5738 23.8187H27.9884V25.5022H24.5742L24.5738 23.8187ZM29.9477 11.3015H21.7189V9.00049L9.23511 11.1895V28.1404L21.7189 30.2731V27.6938H29.9477C30.2837 27.6938 30.5077 27.4135 30.5077 27.1356V11.863C30.5077 11.5826 30.2837 11.3048 29.9477 11.3048V11.3015ZM16.2879 23.4256L15.1126 20.3409H15.0595C15.0595 20.394 13.8842 23.2594 13.8842 23.2594L12.3166 23.1474L14.1638 19.4991L12.4846 15.8508L14.0522 15.7385L15.1155 18.601H15.169C15.169 18.5478 16.3443 15.6264 16.3443 15.6264L17.9676 15.5141L16.0082 19.4995L18.0239 23.4844L16.2886 23.4313L16.2879 23.4256ZM29.7793 27.0739H21.7189V25.5051H23.6778V23.8208H21.7189V22.9765H23.6778V21.2929H21.7189V20.4504H23.6778V18.7668H21.7189V17.9246H23.6778V16.2411H21.7189V15.3989H23.6778V13.7146H21.7189V12.031H29.78V27.0735L29.7793 27.0739Z" fill="#02723B"/>
</g>
</g>
</g>
</g>
</g>
<defs>
<linearGradient id="paint0_linear_221_3213" x1="20" y1="5.2" x2="20" y2="40" gradientUnits="userSpaceOnUse">
<stop stop-color="white"/>
<stop offset="1" stop-color="#D9D9D9"/>
</linearGradient>
<clipPath id="clip0_221_3213">
<rect width="40" height="40" rx="12" fill="white"/>
</clipPath>
<clipPath id="clip1_221_3213">
<rect width="22" height="22" fill="white" transform="translate(8.99994 9.00024)"/>
</clipPath>
</defs>
</svg>
