<svg width="40" height="40" viewBox="0 0 40 40" fill="none" xmlns="http://www.w3.org/2000/svg">
<foreignObject x="-4" y="-4" width="48" height="48"><div xmlns="http://www.w3.org/1999/xhtml" style="backdrop-filter:blur(2px);clip-path:url(#bgblur_0_221_2979_clip_path);height:100%;width:100%"></div></foreignObject><g data-figma-bg-blur-radius="4">
<g clip-path="url(#clip1_221_2979)">
<path d="M40 0H0V40H40V0Z" fill="#171717"/>
<path d="M40 0H0V40H40V0Z" fill="url(#paint0_linear_221_2979)"/>
<path d="M10.3273 28.5729H13.8909V19.7426L8.8 15.8469V27.0146C8.8 27.8768 9.48472 28.5729 10.3273 28.5729Z" fill="#4285F4"/>
<path d="M26.1094 28.5729H29.673C30.5181 28.5729 31.2003 27.8743 31.2003 27.0146V15.8469L26.1094 19.7426" fill="#34A853"/>
<path d="M26.1092 12.99V19.7425L31.2001 15.8468V13.7691C31.2001 11.842 29.0441 10.7434 27.5346 11.8992" fill="#FBBC04"/>
<path d="M13.8906 19.7423V12.9897L19.9997 17.6646L26.1088 12.9897V19.7423L19.9997 24.4172" fill="#EA4335"/>
<path d="M8.8 13.7691V15.8468L13.8909 19.7425V12.99L12.4654 11.8992C10.9534 10.7434 8.8 11.842 8.8 13.7691Z" fill="#C5221F"/>
</g>
<mask id="mask0_221_2979" style="mask-type:alpha" maskUnits="userSpaceOnUse" x="0" y="0" width="40" height="40">
<rect width="40" height="40" fill="white"/>
</mask>
<g mask="url(#mask0_221_2979)">
<rect opacity="0.3" width="40" height="40" rx="12" fill="url(#paint1_linear_221_2979)"/>
</g>
</g>
<defs>
<clipPath id="bgblur_0_221_2979_clip_path" transform="translate(4 4)"><rect width="40" height="40" rx="12"/>
</clipPath><linearGradient id="paint0_linear_221_2979" x1="20" y1="5.2" x2="20" y2="40" gradientUnits="userSpaceOnUse">
<stop stop-color="white"/>
<stop offset="1" stop-color="#D9D9D9"/>
</linearGradient>
<linearGradient id="paint1_linear_221_2979" x1="0" y1="0" x2="40" y2="40" gradientUnits="userSpaceOnUse">
<stop stop-color="white"/>
<stop offset="0.42" stop-color="white" stop-opacity="0.35"/>
<stop offset="0.62" stop-color="white" stop-opacity="0.35"/>
<stop offset="1" stop-color="white"/>
</linearGradient>
<clipPath id="clip1_221_2979">
<rect width="40" height="40" rx="12" fill="white"/>
</clipPath>
</defs>
</svg>
