<svg width="40" height="40" viewBox="0 0 40 40" fill="none" xmlns="http://www.w3.org/2000/svg">
<foreignObject x="-4" y="-4" width="48" height="48"><div xmlns="http://www.w3.org/1999/xhtml" style="backdrop-filter:blur(2px);clip-path:url(#bgblur_0_221_3023_clip_path);height:100%;width:100%"></div></foreignObject><g data-figma-bg-blur-radius="4">
<g clip-path="url(#clip1_221_3023)">
<path d="M40 0H0V40H40V0Z" fill="#171717"/>
<path d="M40 0H0V40H40V0Z" fill="url(#paint0_linear_221_3023)"/>
<path d="M27.15 32.0398H12.85C11.9425 32.0398 11.2 31.301 11.2 30.398V9.60197C11.2 8.69901 11.9425 7.96021 12.85 7.96021H22.75L28.8 13.9801V30.398C28.8 31.301 28.0575 32.0398 27.15 32.0398Z" fill="url(#paint1_linear_221_3023)"/>
<g filter="url(#filter1_dddd_221_3023)">
<path d="M15.3008 17.4009C14.859 17.4009 14.5008 17.759 14.5008 18.2009V24.2626C14.5008 24.7044 14.859 25.0626 15.3008 25.0626H24.7008C25.1426 25.0626 25.5008 24.7044 25.5008 24.2626V18.2009C25.5008 17.759 25.1426 17.4009 24.7008 17.4009H15.3008ZM24.1258 23.6144C24.1258 23.6586 24.09 23.6944 24.0458 23.6944H15.9558C15.9116 23.6944 15.8758 23.6586 15.8758 23.6144V18.849C15.8758 18.8048 15.9116 18.769 15.9558 18.769H24.0458C24.09 18.769 24.1258 18.8048 24.1258 18.849V23.6144Z" fill="url(#paint2_linear_221_3023)"/>
</g>
<path d="M22.75 7.96021L28.8 13.9801H24.3634C23.4723 13.9801 22.75 13.2614 22.75 12.3748V7.96021Z" fill="url(#paint3_linear_221_3023)"/>
</g>
<mask id="mask0_221_3023" style="mask-type:alpha" maskUnits="userSpaceOnUse" x="0" y="0" width="40" height="40">
<rect width="40" height="40" fill="white"/>
</mask>
<g mask="url(#mask0_221_3023)">
<rect opacity="0.3" width="40" height="40" rx="12" fill="url(#paint4_linear_221_3023)"/>
</g>
</g>
<defs>
<clipPath id="bgblur_0_221_3023_clip_path" transform="translate(4 4)"><rect width="40" height="40" rx="12"/>
</clipPath><filter id="filter1_dddd_221_3023" x="12.1008" y="16.6009" width="15.8" height="16.4616" filterUnits="userSpaceOnUse" color-interpolation-filters="sRGB">
<feFlood flood-opacity="0" result="BackgroundImageFix"/>
<feColorMatrix in="SourceAlpha" type="matrix" values="0 0 0 0 0 0 0 0 0 0 0 0 0 0 0 0 0 0 127 0" result="hardAlpha"/>
<feOffset/>
<feGaussianBlur stdDeviation="0.4"/>
<feColorMatrix type="matrix" values="0 0 0 0 1 0 0 0 0 0.34902 0 0 0 0 0 0 0 0 0.21 0"/>
<feBlend mode="normal" in2="BackgroundImageFix" result="effect1_dropShadow_221_3023"/>
<feColorMatrix in="SourceAlpha" type="matrix" values="0 0 0 0 0 0 0 0 0 0 0 0 0 0 0 0 0 0 127 0" result="hardAlpha"/>
<feOffset dy="1.6"/>
<feGaussianBlur stdDeviation="0.8"/>
<feColorMatrix type="matrix" values="0 0 0 0 1 0 0 0 0 0.34902 0 0 0 0 0 0 0 0 0.18 0"/>
<feBlend mode="normal" in2="effect1_dropShadow_221_3023" result="effect2_dropShadow_221_3023"/>
<feColorMatrix in="SourceAlpha" type="matrix" values="0 0 0 0 0 0 0 0 0 0 0 0 0 0 0 0 0 0 127 0" result="hardAlpha"/>
<feOffset dy="3.2"/>
<feGaussianBlur stdDeviation="0.8"/>
<feColorMatrix type="matrix" values="0 0 0 0 1 0 0 0 0 0.34902 0 0 0 0 0 0 0 0 0.11 0"/>
<feBlend mode="normal" in2="effect2_dropShadow_221_3023" result="effect3_dropShadow_221_3023"/>
<feColorMatrix in="SourceAlpha" type="matrix" values="0 0 0 0 0 0 0 0 0 0 0 0 0 0 0 0 0 0 127 0" result="hardAlpha"/>
<feOffset dy="5.6"/>
<feGaussianBlur stdDeviation="1.2"/>
<feColorMatrix type="matrix" values="0 0 0 0 1 0 0 0 0 0.34902 0 0 0 0 0 0 0 0 0.03 0"/>
<feBlend mode="normal" in2="effect3_dropShadow_221_3023" result="effect4_dropShadow_221_3023"/>
<feBlend mode="normal" in="SourceGraphic" in2="effect4_dropShadow_221_3023" result="shape"/>
</filter>
<linearGradient id="paint0_linear_221_3023" x1="20" y1="5.2" x2="20" y2="40" gradientUnits="userSpaceOnUse">
<stop stop-color="white"/>
<stop offset="1" stop-color="#D9D9D9"/>
</linearGradient>
<linearGradient id="paint1_linear_221_3023" x1="20" y1="12.7363" x2="20" y2="32.0398" gradientUnits="userSpaceOnUse">
<stop stop-color="#F8BF08"/>
<stop offset="1" stop-color="#F8B008"/>
</linearGradient>
<linearGradient id="paint2_linear_221_3023" x1="20.0008" y1="17.4009" x2="20.0008" y2="25.0626" gradientUnits="userSpaceOnUse">
<stop stop-color="#FDFFFF"/>
<stop offset="1" stop-color="#FDFFFF" stop-opacity="0.6"/>
</linearGradient>
<linearGradient id="paint3_linear_221_3023" x1="25.6" y1="11.1443" x2="23.6132" y2="13.9397" gradientUnits="userSpaceOnUse">
<stop stop-color="#F59307"/>
<stop offset="1" stop-color="#F59307"/>
</linearGradient>
<linearGradient id="paint4_linear_221_3023" x1="0" y1="0" x2="40" y2="40" gradientUnits="userSpaceOnUse">
<stop stop-color="white"/>
<stop offset="0.42" stop-color="white" stop-opacity="0.35"/>
<stop offset="0.62" stop-color="white" stop-opacity="0.35"/>
<stop offset="1" stop-color="white"/>
</linearGradient>
<clipPath id="clip1_221_3023">
<rect width="40" height="40" rx="12" fill="white"/>
</clipPath>
</defs>
</svg>
