<svg width="40" height="40" viewBox="0 0 40 40" fill="none" xmlns="http://www.w3.org/2000/svg">
<g clip-path="url(#clip0_221_3277)">
<path d="M40 0H0V40H40V0Z" fill="#171717"/>
<path d="M40 0H0V40H40V0Z" fill="url(#paint0_linear_221_3277)"/>
<g clip-path="url(#clip1_221_3277)">
<path d="M30.4459 22.0615C30.3188 21.6766 29.9858 21.4085 29.5552 21.3441C29.3521 21.3139 29.1196 21.3267 28.8443 21.3834C28.3646 21.4823 28.009 21.52 27.7492 21.5273C28.7293 19.8723 29.5265 17.9849 29.9853 16.2084C30.7271 13.3356 30.3308 12.0271 29.8675 11.4351C28.6413 9.86818 26.8522 9.02652 24.6938 9.00063C23.5426 8.98646 22.5317 9.21377 22.0045 9.3773C21.4849 9.2883 20.9591 9.24018 20.4319 9.23339C19.3937 9.21677 18.4766 9.44326 17.6927 9.90824C17.0618 9.69522 16.4148 9.53281 15.7581 9.42255C13.8663 9.11211 12.3419 9.35414 11.2266 10.1421C9.87634 11.0958 9.25028 12.7532 9.36611 15.0677C9.40291 15.8025 9.81392 18.0386 10.4612 20.1591C10.8333 21.378 11.2298 22.39 11.6403 23.1675C12.2222 24.2703 12.8447 24.9195 13.5438 25.1529C13.9358 25.2834 14.6474 25.3747 15.3964 24.7514C15.5077 24.883 15.6392 24.9961 15.7859 25.0866C15.9993 25.2212 16.2601 25.3311 16.5207 25.3963C17.46 25.6312 18.3397 25.5723 19.0901 25.2434L19.1013 25.6146L19.1176 26.1322C19.1621 27.2398 19.2376 28.1008 19.4607 28.7034C19.473 28.7367 19.4894 28.7871 19.5068 28.8405C19.6183 29.1815 19.8045 29.7525 20.2782 30.1998C20.7688 30.6628 21.3624 30.8048 21.9059 30.8048C22.1784 30.8048 22.4387 30.7691 22.6668 30.7201C23.4801 30.5459 24.4039 30.2801 25.0718 29.3289C25.7036 28.4295 26.0105 27.0749 26.0661 24.9405L26.0863 24.7677L26.0994 24.6549L26.2482 24.6679L26.2866 24.6707C27.1149 24.7083 28.1278 24.5328 28.7497 24.2439C29.2411 24.0158 30.8169 23.1842 30.4459 22.0615Z" fill="black"/>
<path d="M29.0307 22.2797C26.5679 22.7878 26.3987 21.954 26.3987 21.954C28.9991 18.0954 30.0861 13.1976 29.148 11.9989C26.5887 8.72908 22.1585 10.2756 22.0847 10.3156L22.061 10.32C21.5745 10.2189 21.0299 10.1589 20.4177 10.1488C19.3033 10.1306 18.4581 10.441 17.8165 10.9275C17.8165 10.9275 9.9137 7.67184 10.2811 15.0221C10.3593 16.5858 12.5223 26.8538 15.1024 23.7523C16.0454 22.6182 16.9566 21.6594 16.9566 21.6594C17.409 21.96 17.9508 22.1135 18.5188 22.0582L18.563 22.0208C18.5498 22.1682 18.5558 22.3166 18.5807 22.4623C17.9159 23.2051 18.1114 23.3353 16.7826 23.6087C15.4382 23.8859 16.228 24.379 16.7437 24.5079C17.3689 24.6644 18.8151 24.8856 19.7922 23.5177L19.7532 23.6738C20.0138 23.8824 20.1964 25.0307 20.1659 26.0716C20.1354 27.1124 20.1147 27.8271 20.3199 28.3853C20.5251 28.9435 20.7296 30.1994 22.4764 29.8249C23.9359 29.512 24.6922 28.7017 24.7974 27.3498C24.8721 26.3888 25.0411 26.5308 25.0517 25.6714L25.1872 25.2645C25.3434 23.9617 25.212 23.5414 26.1112 23.7368L26.3297 23.7559C26.9915 23.7859 27.8577 23.6494 28.366 23.4133C29.4606 22.9053 30.1101 22.0568 29.0307 22.2797Z" fill="#336791"/>
<path d="M18.2784 15.7213C18.0565 15.6905 17.8553 15.7191 17.7537 15.7959C17.7324 15.8108 17.7144 15.8298 17.7007 15.8518C17.687 15.8738 17.678 15.8984 17.6741 15.924C17.6613 16.0156 17.7254 16.1168 17.7649 16.1688C17.8764 16.3165 18.039 16.4182 18.2004 16.4405C18.2236 16.4436 18.2469 16.4453 18.2702 16.4454C18.539 16.4454 18.7834 16.2361 18.8049 16.0816C18.8319 15.8881 18.5507 15.7591 18.2784 15.7213ZM25.6308 15.7272C25.6096 15.5757 25.3397 15.5324 25.0839 15.5681C24.8279 15.6037 24.5802 15.7191 24.6008 15.8712C24.6175 15.9894 24.8309 16.1911 25.0836 16.1911C25.1048 16.1911 25.1263 16.1897 25.1482 16.1867C25.3169 16.1634 25.4406 16.0562 25.4992 15.9946C25.5889 15.9006 25.6401 15.7954 25.6308 15.7272ZM29.8495 22.222C29.7554 21.938 29.4535 21.8467 28.9511 21.9502C27.46 22.2579 26.926 22.0448 26.7508 21.9156C27.9097 20.15 28.8631 18.0159 29.3774 16.0246C29.6211 15.0813 29.7557 14.2053 29.7666 13.4915C29.7789 12.7076 29.6453 12.132 29.37 11.7801C28.2602 10.362 26.6314 9.60128 24.6595 9.58057C23.3041 9.5653 22.1588 9.91227 21.9366 10.0098C21.435 9.88637 20.9209 9.82035 20.4043 9.81305C19.3866 9.7967 18.5071 10.0404 17.7788 10.5367C17.0867 10.2836 16.3724 10.0964 15.6452 9.97741C13.9167 9.69913 12.5433 9.90981 11.5629 10.6043C10.3933 11.4329 9.8534 12.9142 9.95807 15.0066C9.99323 15.7106 10.3944 17.8763 11.0273 19.9505C11.8605 22.6804 12.7662 24.2258 13.7193 24.5436C13.8424 24.5852 13.9715 24.6066 14.1015 24.6068C14.4492 24.6068 14.8753 24.4501 15.3187 23.917C15.8596 23.2681 16.4191 22.6349 16.9965 22.0184C17.368 22.2196 17.7815 22.3308 18.2037 22.343L18.2064 22.376C18.122 22.4763 18.0527 22.564 17.9935 22.639C17.7019 23.0091 17.6411 23.0862 16.7022 23.2798C16.4351 23.3348 15.7259 23.4809 15.7156 23.9783C15.7044 24.5215 16.5539 24.7497 16.6507 24.7739C16.9881 24.8584 17.313 24.9001 17.6231 24.9001C18.377 24.9001 19.0405 24.6523 19.5705 24.1729C19.5542 26.1097 19.6349 28.0179 19.8674 28.5995C20.0579 29.0754 20.5231 30.2387 21.9928 30.2387C22.2083 30.2387 22.4458 30.2136 22.7069 30.1577C24.2406 29.8287 24.9066 29.1509 25.1642 27.6564C25.3021 26.8579 25.5387 24.9506 25.6499 23.9274C25.8849 24.0007 26.1872 24.0342 26.5139 24.0342C27.1956 24.0342 27.9822 23.8895 28.4755 23.6603C29.0296 23.403 30.0296 22.7715 29.8484 22.2228L29.8495 22.222ZM26.1969 15.3089C26.1918 15.6109 26.1503 15.8851 26.1062 16.1712C26.0587 16.4789 26.0097 16.7973 25.9974 17.1838C25.9852 17.5597 26.0323 17.9507 26.0776 18.3285C26.1694 19.092 26.2635 19.878 25.8991 20.6537C25.8385 20.5465 25.7846 20.4356 25.7377 20.3217C25.6924 20.2119 25.5941 20.0355 25.4578 19.7913C24.9279 18.8409 23.687 16.6155 24.322 15.7073C24.5112 15.437 24.9915 15.1595 26.1969 15.3089ZM24.7358 10.1922C26.5025 10.2312 27.8999 10.8921 28.8895 12.1565C29.6483 13.1262 28.8127 17.5392 26.3934 21.346L26.3201 21.2536L26.2896 21.2154C26.9148 20.183 26.7925 19.1614 26.6837 18.2557C26.639 17.884 26.5968 17.5329 26.6074 17.2034C26.6186 16.8537 26.6647 16.5542 26.7094 16.2642C26.7644 15.9069 26.8203 15.5373 26.8047 15.1017C26.8173 15.0481 26.8207 14.9927 26.8148 14.9379C26.7756 14.5201 26.2986 13.2699 25.3261 12.138C24.7944 11.519 24.0187 10.8261 22.9598 10.359C23.5436 10.2373 24.1395 10.1813 24.7358 10.1922ZM14.8496 23.5267C14.3609 24.114 14.0235 24.0015 13.9126 23.9647C13.1895 23.7235 12.3508 22.1955 11.6111 19.7722C10.9712 17.6755 10.5972 15.5673 10.5675 14.9761C10.474 13.1063 10.9273 11.8033 11.9147 11.1031C13.5217 9.96351 16.1636 10.6454 17.2252 10.9916L17.1789 11.036C15.437 12.7954 15.4781 15.8011 15.4825 15.9848C15.4844 16.088 15.4891 16.1912 15.4964 16.2941C15.5264 16.7997 15.5823 17.7406 15.4331 18.8063C15.2947 19.7965 15.6 20.7657 16.2705 21.4654C16.3401 21.5377 16.4123 21.6058 16.4871 21.6698C15.9243 22.2736 15.3782 22.8926 14.8496 23.5267ZM16.7112 21.0429C16.1707 20.479 15.9251 19.6946 16.0377 18.8908C16.195 17.7651 16.1369 16.7847 16.1058 16.2582L16.0952 16.069C16.3498 15.8434 17.5291 15.2116 18.37 15.4042C18.7537 15.4923 18.9876 15.7534 19.0849 16.2031C19.588 18.5305 19.1514 19.5005 18.8006 20.2797C18.7283 20.4403 18.66 20.5921 18.6016 20.7491L18.5564 20.8704C18.4419 21.1773 18.3354 21.4626 18.2694 21.7336C17.6949 21.7319 17.1361 21.4864 16.7112 21.0429ZM16.7995 24.1817C16.6551 24.1459 16.5176 24.0868 16.3923 24.0066C16.4662 23.9718 16.5978 23.9246 16.8259 23.8775C17.9303 23.6502 18.1009 23.4896 18.4735 23.0168C18.5588 22.9083 18.6559 22.7854 18.7897 22.6357C18.9895 22.4119 19.0808 22.4499 19.2465 22.5185C19.3809 22.5741 19.5114 22.7423 19.5646 22.9276C19.5896 23.0151 19.6177 23.1811 19.5256 23.3103C18.7474 24.3997 17.6139 24.3855 16.7995 24.1817ZM22.5796 29.5606C21.2285 29.85 20.7499 29.1607 20.4348 28.3725C20.2312 27.8636 20.1315 25.5692 20.2023 23.0353C20.2033 23.0025 20.1989 22.9696 20.1893 22.9383C20.1807 22.8778 20.168 22.818 20.1514 22.7592C20.0459 22.3904 19.7886 22.0822 19.4803 21.9543C19.3577 21.9036 19.1329 21.8104 18.8625 21.8797C18.9203 21.6422 19.02 21.3741 19.1285 21.0835L19.174 20.9614C19.2253 20.8238 19.2893 20.6809 19.3574 20.53C19.7245 19.7144 20.2274 18.5973 19.6818 16.0737C19.4773 15.1284 18.7949 14.667 17.7602 14.7741C17.1399 14.8381 16.5725 15.0887 16.2895 15.232C16.2289 15.2627 16.1727 15.2926 16.1211 15.3217C16.2001 14.3694 16.4986 12.5896 17.615 11.4634C18.3179 10.7545 19.2541 10.4042 20.3948 10.423C22.6423 10.4598 24.0835 11.6133 24.8969 12.5743C25.5976 13.4026 25.9773 14.2369 26.1288 14.6869C24.9898 14.5711 24.2149 14.7959 23.8222 15.3574C22.9677 16.5787 24.2896 18.9491 24.9249 20.0884C25.0413 20.2972 25.1419 20.4776 25.1735 20.5542C25.3804 21.0555 25.6483 21.3902 25.8437 21.6346C25.9037 21.7096 25.9617 21.7821 26.0062 21.8456C25.6611 21.9451 25.0416 22.1748 25.098 23.3234C25.0525 23.8998 24.7284 26.5984 24.5641 27.5518C24.3469 28.8113 23.8835 29.2806 22.5801 29.56L22.5796 29.5606ZM28.2196 23.1064C27.8669 23.2702 27.2766 23.3931 26.7156 23.4193C26.0961 23.4485 25.7807 23.3498 25.7066 23.2893C25.6717 22.5736 25.9383 22.4986 26.2201 22.4196C26.2646 22.407 26.3076 22.395 26.3493 22.3803C26.3767 22.4026 26.4052 22.4235 26.4346 22.443C26.9325 22.7717 27.8205 22.8072 29.0743 22.5482L29.088 22.5455C28.919 22.7036 28.6298 22.9159 28.2196 23.1064Z" fill="white"/>
</g>
</g>
<defs>
<linearGradient id="paint0_linear_221_3277" x1="20" y1="5.2" x2="20" y2="40" gradientUnits="userSpaceOnUse">
<stop stop-color="white"/>
<stop offset="1" stop-color="#D9D9D9"/>
</linearGradient>
<clipPath id="clip0_221_3277">
<rect width="40" height="40" rx="12" fill="white"/>
</clipPath>
<clipPath id="clip1_221_3277">
<rect width="22" height="22" fill="white" transform="translate(9 9)"/>
</clipPath>
</defs>
</svg>
