<svg width="40" height="40" viewBox="0 0 40 40" fill="none" xmlns="http://www.w3.org/2000/svg">
<g clip-path="url(#clip0_221_3285)">
<path d="M40 0H0V40H40V0Z" fill="#171717"/>
<path d="M40 0H0V40H40V0Z" fill="url(#paint0_linear_221_3285)"/>
<g clip-path="url(#clip1_221_3285)">
<path d="M12.3773 9.21487C11.9691 8.8969 11.3891 8.93558 11.0195 9.30081L9.30078 11.0196C8.93554 11.3848 8.89687 11.9649 9.21054 12.3774L12.648 16.8461C12.8414 17.0996 13.1465 17.25 13.4644 17.25H15.7891L20.4726 21.9336C19.841 23.1797 20.0429 24.7438 21.0871 25.7836L25.8996 30.5961C26.4367 31.1332 27.309 31.1332 27.8461 30.5961L30.5961 27.8461C31.1332 27.309 31.1332 26.4367 30.5961 25.8996L25.7836 21.0871C24.7437 20.0473 23.1797 19.841 21.9336 20.4727L17.25 15.7891V13.4688C17.25 13.1465 17.0996 12.8457 16.8461 12.6524L12.3773 9.21487ZM9.85507 26.0199C9.30937 26.5656 9 27.309 9 28.0824C9 29.6938 10.3062 31 11.9176 31C12.691 31 13.4344 30.6906 13.9801 30.1449L19.0418 25.0832C18.7066 24.1852 18.6551 23.2098 18.8871 22.286L16.2359 19.6348L9.85507 26.0199ZM31 15.1875C31 14.7364 30.9527 14.2981 30.8625 13.877C30.7593 13.3957 30.1707 13.2711 29.8227 13.6192L27.077 16.3649C26.948 16.4938 26.7719 16.5668 26.5914 16.5668H24.125C23.7469 16.5668 23.4375 16.2574 23.4375 15.8793V13.4086C23.4375 13.2282 23.5106 13.052 23.6395 12.9231L26.3852 10.1774C26.7332 9.82933 26.6086 9.24065 26.1273 9.13753C25.702 9.04729 25.2637 9.00003 24.8125 9.00003C21.3965 9.00003 18.625 11.7715 18.625 15.1875V15.2219L22.2902 18.8871C23.8371 18.4961 25.5473 18.9086 26.759 20.1203L27.4336 20.7949C29.539 19.8067 31 17.6668 31 15.1875ZM11.4062 27.5625C11.4062 27.289 11.5149 27.0267 11.7083 26.8333C11.9017 26.6399 12.164 26.5313 12.4375 26.5313C12.711 26.5313 12.9733 26.6399 13.1667 26.8333C13.3601 27.0267 13.4687 27.289 13.4687 27.5625C13.4687 27.836 13.3601 28.0983 13.1667 28.2917C12.9733 28.4851 12.711 28.5938 12.4375 28.5938C12.164 28.5938 11.9017 28.4851 11.7083 28.2917C11.5149 28.0983 11.4062 27.836 11.4062 27.5625Z" fill="#212529"/>
</g>
</g>
<defs>
<linearGradient id="paint0_linear_221_3285" x1="20" y1="5.2" x2="20" y2="40" gradientUnits="userSpaceOnUse">
<stop stop-color="white"/>
<stop offset="1" stop-color="#D9D9D9"/>
</linearGradient>
<clipPath id="clip0_221_3285">
<rect width="40" height="40" rx="12" fill="white"/>
</clipPath>
<clipPath id="clip1_221_3285">
<rect width="22" height="22" fill="white" transform="translate(9 9)"/>
</clipPath>
</defs>
</svg>
