<svg width="40" height="40" viewBox="0 0 40 40" fill="none" xmlns="http://www.w3.org/2000/svg">
<foreignObject x="-4" y="-4" width="48" height="48"><div xmlns="http://www.w3.org/1999/xhtml" style="backdrop-filter:blur(2px);clip-path:url(#bgblur_0_221_3180_clip_path);height:100%;width:100%"></div></foreignObject><g data-figma-bg-blur-radius="4">
<g clip-path="url(#clip1_221_3180)">
<mask id="mask0_221_3180" style="mask-type:luminance" maskUnits="userSpaceOnUse" x="0" y="0" width="40" height="40">
<path d="M40 0H0V40H40V0Z" fill="white"/>
</mask>
<g mask="url(#mask0_221_3180)">
<path d="M40 0H0V40H40V0Z" fill="url(#paint0_radial_221_3180)"/>
<g filter="url(#filter1_ddddi_221_3180)">
<path d="M22.1731 10.6859C21.7671 10.0121 21.0379 9.6001 20.2511 9.6001C19.4644 9.6001 18.7351 10.0121 18.3291 10.6859L15.1675 16.1012C20.0823 18.555 23.3283 23.4303 23.6963 28.9113H21.4764C21.1091 24.2133 18.2832 20.0604 14.0479 17.9943L11.1216 23.054C13.4996 24.1205 15.171 26.3243 15.5567 28.9017H10.4586C10.3357 28.893 10.2255 28.823 10.1655 28.7155C10.1055 28.608 10.1036 28.4775 10.1607 28.3683L11.5733 25.9659C11.0947 25.5665 10.5477 25.2572 9.95882 25.0529L8.56058 27.4554C8.26658 27.9597 8.1869 28.5609 8.33954 29.1244C8.49218 29.6879 8.86426 30.1667 9.37266 30.4537C9.70418 30.6406 10.0779 30.7398 10.4586 30.742H17.4402C17.7039 27.4876 16.2458 24.3325 13.5963 22.4246L14.7062 20.5026C18.0511 22.7999 19.9331 26.6937 19.6553 30.742H25.5703C25.8506 24.6079 22.8471 18.7878 17.6853 15.4621L19.9292 11.6181C20.0333 11.4438 20.2584 11.3859 20.4337 11.4884C20.6884 11.6277 30.1831 28.1954 30.3609 28.3875C30.4246 28.5019 30.4223 28.6415 30.3548 28.7537C30.2873 28.8659 30.165 28.9333 30.0341 28.9305H27.747C27.7758 29.5423 27.7758 30.1526 27.747 30.7613H30.0437C30.6328 30.7651 31.199 30.5331 31.616 30.117C32.033 29.7009 32.2663 29.1352 32.2637 28.5461C32.2639 28.1609 32.1611 27.7827 31.9657 27.4506L22.1731 10.6859Z" fill="url(#paint1_linear_221_3180)"/>
</g>
</g>
</g>
<mask id="mask1_221_3180" style="mask-type:alpha" maskUnits="userSpaceOnUse" x="0" y="0" width="40" height="40">
<rect width="40" height="40" fill="white"/>
</mask>
<g mask="url(#mask1_221_3180)">
<rect opacity="0.3" width="40" height="40" rx="12" fill="url(#paint2_linear_221_3180)"/>
</g>
</g>
<defs>
<clipPath id="bgblur_0_221_3180_clip_path" transform="translate(4 4)"><rect width="40" height="40" rx="12"/>
</clipPath><filter id="filter1_ddddi_221_3180" x="3.77423" y="8.70221" width="32.9789" height="38.221" filterUnits="userSpaceOnUse" color-interpolation-filters="sRGB">
<feFlood flood-opacity="0" result="BackgroundImageFix"/>
<feColorMatrix in="SourceAlpha" type="matrix" values="0 0 0 0 0 0 0 0 0 0 0 0 0 0 0 0 0 0 127 0" result="hardAlpha"/>
<feOffset dy="0.897888"/>
<feGaussianBlur stdDeviation="0.897888"/>
<feColorMatrix type="matrix" values="0 0 0 0 0 0 0 0 0 0 0 0 0 0 0 0 0 0 0.1 0"/>
<feBlend mode="normal" in2="BackgroundImageFix" result="effect1_dropShadow_221_3180"/>
<feColorMatrix in="SourceAlpha" type="matrix" values="0 0 0 0 0 0 0 0 0 0 0 0 0 0 0 0 0 0 127 0" result="hardAlpha"/>
<feOffset dy="2.69366"/>
<feGaussianBlur stdDeviation="1.34683"/>
<feColorMatrix type="matrix" values="0 0 0 0 0 0 0 0 0 0 0 0 0 0 0 0 0 0 0.09 0"/>
<feBlend mode="normal" in2="effect1_dropShadow_221_3180" result="effect2_dropShadow_221_3180"/>
<feColorMatrix in="SourceAlpha" type="matrix" values="0 0 0 0 0 0 0 0 0 0 0 0 0 0 0 0 0 0 127 0" result="hardAlpha"/>
<feOffset dy="6.28522"/>
<feGaussianBlur stdDeviation="1.79578"/>
<feColorMatrix type="matrix" values="0 0 0 0 0 0 0 0 0 0 0 0 0 0 0 0 0 0 0.05 0"/>
<feBlend mode="normal" in2="effect2_dropShadow_221_3180" result="effect3_dropShadow_221_3180"/>
<feColorMatrix in="SourceAlpha" type="matrix" values="0 0 0 0 0 0 0 0 0 0 0 0 0 0 0 0 0 0 127 0" result="hardAlpha"/>
<feOffset dy="11.6726"/>
<feGaussianBlur stdDeviation="2.24472"/>
<feColorMatrix type="matrix" values="0 0 0 0 0 0 0 0 0 0 0 0 0 0 0 0 0 0 0.01 0"/>
<feBlend mode="normal" in2="effect3_dropShadow_221_3180" result="effect4_dropShadow_221_3180"/>
<feBlend mode="normal" in="SourceGraphic" in2="effect4_dropShadow_221_3180" result="shape"/>
<feColorMatrix in="SourceAlpha" type="matrix" values="0 0 0 0 0 0 0 0 0 0 0 0 0 0 0 0 0 0 127 0" result="hardAlpha"/>
<feOffset/>
<feGaussianBlur stdDeviation="0.359156"/>
<feComposite in2="hardAlpha" operator="arithmetic" k2="-1" k3="1"/>
<feColorMatrix type="matrix" values="0 0 0 0 1 0 0 0 0 1 0 0 0 0 1 0 0 0 1 0"/>
<feBlend mode="normal" in2="shape" result="effect5_innerShadow_221_3180"/>
</filter>
<radialGradient id="paint0_radial_221_3180" cx="0" cy="0" r="1" gradientUnits="userSpaceOnUse" gradientTransform="translate(20.2641 43.2) rotate(-89.9951) scale(45.6 61.4022)">
<stop stop-color="#613EEE"/>
<stop offset="0.85381" stop-color="#7653FE"/>
</radialGradient>
<linearGradient id="paint1_linear_221_3180" x1="20.2637" y1="9.6001" x2="20.1888" y2="30.5566" gradientUnits="userSpaceOnUse">
<stop stop-color="white"/>
<stop offset="1" stop-color="white" stop-opacity="0.5"/>
</linearGradient>
<linearGradient id="paint2_linear_221_3180" x1="0" y1="0" x2="40" y2="40" gradientUnits="userSpaceOnUse">
<stop stop-color="white"/>
<stop offset="0.42" stop-color="white" stop-opacity="0.35"/>
<stop offset="0.62" stop-color="white" stop-opacity="0.35"/>
<stop offset="1" stop-color="white"/>
</linearGradient>
<clipPath id="clip1_221_3180">
<rect width="40" height="40" rx="12" fill="white"/>
</clipPath>
</defs>
</svg>
