<svg width="24" height="24" viewBox="0 0 24 24" fill="none" xmlns="http://www.w3.org/2000/svg">
<path fill-rule="evenodd" clip-rule="evenodd" d="M12.4951 1.9999C12.6749 2.00161 12.926 2.01133 13.2285 2.04385C13.8314 2.10867 14.6564 2.26419 15.541 2.62978C17.3461 3.37583 19.3373 4.97675 20.2158 8.24502C20.3591 8.77829 20.043 9.32723 19.5098 9.4706C18.9764 9.61397 18.4276 9.29692 18.2842 8.76357C17.5857 6.16552 16.0769 5.01587 14.7764 4.47842C14.1082 4.20234 13.4778 4.0829 13.0146 4.0331C12.7845 4.00837 12.5994 4.00107 12.4766 3.9999C12.4364 3.99893 12.0365 3.99884 11.9512 4.00088C11.78 4.00497 11.5271 4.02011 11.2207 4.06435C10.6036 4.1535 9.79382 4.35797 8.99316 4.81142C7.46849 5.67501 5.75 7.56818 5.75 11.9999C5.75009 16.4314 7.46853 18.3238 8.99316 19.1874C9.7939 19.6409 10.6036 19.8463 11.2207 19.9354C11.5271 19.9797 11.78 19.9939 11.9512 19.9979C12.0366 20 12.1016 19.9999 12.1416 19.9989C12.1615 19.9984 12.1754 19.9973 12.1826 19.997H12.3135L12.335 19.9979C12.3569 19.9987 12.394 19.9999 12.4443 19.9999C12.5455 19.9998 12.7003 19.9958 12.8945 19.9794C13.2848 19.9464 13.8256 19.8632 14.4199 19.6669C15.5856 19.2817 16.9483 18.4664 17.8262 16.6913C18.0828 15.9397 18.1269 14.9343 17.6045 14.1474C17.4211 13.8711 17.1393 13.5802 16.709 13.3212C16.2288 15.7458 14.1263 17.0048 12.25 17.0048C10.3402 17.0048 8.75023 15.6655 8.75 14.0048C8.75 13.1629 9.00832 12.471 9.4375 11.9345C9.85424 11.4135 10.3877 11.0924 10.8652 10.8935C11.3437 10.6941 11.8083 10.5992 12.1436 10.5526C12.3137 10.529 12.4573 10.5168 12.5615 10.5106C12.6137 10.5075 12.6567 10.5066 12.6885 10.5058C12.7042 10.5053 12.7173 10.5049 12.7275 10.5048H12.75C13.4861 10.5048 14.1601 10.5496 14.7744 10.6366C14.7164 10.3619 14.6353 10.1244 14.54 9.9208C14.2532 9.30781 13.8096 8.93828 13.3232 8.74795C12.2733 8.3371 11.0712 8.74592 10.6074 9.51846C10.3233 9.99203 9.70893 10.1463 9.23535 9.86221C8.76181 9.57808 8.60853 8.9637 8.89258 8.49014C9.92891 6.76292 12.2269 6.17162 14.0518 6.88564C15.0029 7.25782 15.8405 7.98303 16.3506 9.07314C16.6349 9.6808 16.8082 10.3807 16.8564 11.1698C17.9545 11.61 18.7462 12.2513 19.2705 13.0409C20.2784 14.5591 20.0866 16.3146 19.6914 17.4159C19.6794 17.4493 19.6649 17.4817 19.6494 17.5136C18.484 19.9183 16.6108 21.0499 15.0479 21.5663C14.2727 21.8224 13.5718 21.9285 13.0625 21.9716C12.807 21.9932 12.5968 21.9998 12.4463 21.9999C12.371 22 12.3099 21.9985 12.2656 21.997L12.25 21.996C12.233 21.9967 12.2131 21.9974 12.1904 21.9979C12.1206 21.9997 12.0238 22.0008 11.9043 21.9979C11.6654 21.9923 11.3319 21.9712 10.9355 21.914C10.1465 21.8 9.08094 21.536 8.00684 20.9276C5.78172 19.6671 3.7501 17.0625 3.75 11.9999C3.75 6.93696 5.78162 4.33168 8.00684 3.07119C9.08094 2.46281 10.1465 2.19881 10.9355 2.08486C11.3319 2.02764 11.6654 2.00755 11.9043 2.00185C12.0242 1.99901 12.424 1.99821 12.4951 1.9999ZM12.4189 12.5341C12.1917 12.5656 11.9062 12.627 11.6348 12.7401C11.3625 12.8536 11.1458 13.0015 11 13.1835C10.8668 13.35 10.75 13.5968 10.75 14.0048C10.7503 14.2967 11.1604 15.0048 12.25 15.0048C13.3348 15.0048 14.5268 14.2611 14.7637 12.8397C14.7736 12.78 14.7825 12.7211 14.791 12.663C14.2207 12.5634 13.5476 12.505 12.7539 12.5048C12.6938 12.5084 12.5298 12.5187 12.4189 12.5341Z" fill="#8290A3"/>
</svg>
